<svg width="154" height="154" viewBox="0 0 154 154" fill="none" xmlns="http://www.w3.org/2000/svg">
<path d="M145.065 74.3636C143.815 73.6926 142.389 73.4216 140.979 73.5874C142.611 72.0495 143.612 69.9601 143.788 67.7252C143.957 66.3317 143.959 64.9231 143.796 63.529C143.679 61.9953 143.234 60.5045 142.492 59.1572C141.685 57.8978 140.582 56.8547 139.28 56.1184C137.899 55.3057 136.453 54.6111 134.955 54.0421C132.118 52.9215 128.981 52.2236 125.963 53.0044C124.539 53.373 123.184 53.9706 121.952 54.7738C120.921 55.4128 120.038 56.2639 119.362 57.2704C118.631 55.5025 117.457 53.9526 115.954 52.7697C115.693 52.5544 115.425 52.3484 115.149 52.1523L115.136 52.6999C116.967 53.962 118.353 55.7708 119.095 57.8679C119.108 57.9092 119.133 57.9458 119.167 57.9736C119.2 58.0013 119.241 58.019 119.284 58.0246C119.327 58.0303 119.371 58.0236 119.41 58.0053C119.45 57.9871 119.483 57.958 119.507 57.9216C120.62 55.774 123.05 54.4126 125.268 53.6793C126.401 53.2926 127.591 53.1012 128.789 53.1133C130.412 53.1683 132.018 53.4701 133.55 54.0084C135.058 54.5205 136.523 55.1483 137.934 55.886C139.231 56.5008 140.402 57.3527 141.386 58.3979C142.341 59.5597 142.963 60.9583 143.188 62.4453C143.434 63.8042 143.52 65.1873 143.444 66.5663C143.299 69.2792 142.434 72.2421 139.992 73.7492C139.95 73.7798 139.92 73.8236 139.906 73.8735C139.892 73.9235 139.896 73.9766 139.916 74.0244C139.936 74.0722 139.972 74.1117 140.017 74.1366C140.063 74.1616 140.115 74.1705 140.166 74.1618C141.776 73.779 143.47 74.007 144.922 74.8015C146.377 75.8075 147.501 77.2221 148.153 78.8666C148.944 80.5894 149.26 82.4922 149.068 84.3782C148.801 86.242 147.908 87.9599 146.537 89.2501C144.696 91.0909 141.791 91.4214 139.306 91.2067C138.712 91.1622 138.124 91.0571 137.551 90.893C137.145 90.8015 136.769 90.6068 136.46 90.3277C136.289 90.1452 136.056 90.3454 136.084 90.5471C136.433 93.1303 135.804 95.9996 133.81 97.7974C131.813 99.5308 129.302 100.56 126.663 100.727C125.747 100.793 124.828 100.802 123.911 100.753C123.978 100.905 124.026 101.064 124.053 101.228C124.124 101.228 124.195 101.236 124.266 101.237C126.657 101.374 129.047 100.957 131.252 100.02C132.527 99.4526 133.676 98.635 134.63 97.6157C135.478 96.6428 136.071 95.4752 136.357 94.2171C136.602 93.1578 136.674 92.0658 136.57 90.9835C137.251 91.3312 137.995 91.5398 138.758 91.5971C140.136 91.7752 141.533 91.7382 142.9 91.4874C144.207 91.3061 145.44 90.7709 146.465 89.9396C147.949 88.6741 148.982 86.9617 149.41 85.0593C149.779 82.8813 149.475 80.6426 148.539 78.6418C147.845 76.8944 146.633 75.4014 145.065 74.3636ZM101.722 51.5325C103.972 50.6503 106.392 50.2895 108.8 50.4771C110.011 50.5662 111.206 50.8008 112.36 51.1759C113.191 51.4649 113.977 51.8709 114.695 52.3816L114.708 51.8447C114.258 51.548 113.785 51.2864 113.294 51.0624C112.241 50.6134 111.131 50.311 109.996 50.1634C107.527 49.7931 105.005 49.9892 102.623 50.7372C101.947 50.9541 101.289 51.2226 100.655 51.5402L100.63 52.0372C100.988 51.8524 101.35 51.6806 101.722 51.5325ZM80.203 71.7903C79.779 69.1168 80.4098 66.383 81.9624 64.1656C82.6366 63.231 83.4737 62.4256 84.4337 61.788L84.4222 61.2557C82.3486 62.5835 80.8167 64.6074 80.1017 66.9636C79.7112 68.2451 79.5589 69.5872 79.6523 70.9236C79.6968 71.5649 79.7994 72.2008 79.9591 72.8234C80.0294 73.1421 80.1201 73.4559 80.2306 73.763C80.3886 73.7369 80.5473 73.7139 80.7069 73.6924C80.4942 73.0711 80.3258 72.4354 80.203 71.7903ZM88.5202 60.132C89.7887 59.9096 91.0883 59.9341 92.3475 60.2041C92.3954 60.2166 92.4461 60.2132 92.492 60.1946C92.5379 60.1759 92.5765 60.1429 92.6021 60.1006C93.6123 58.2275 94.9237 56.5334 96.4839 55.086C97.5901 54.003 98.8268 53.0618 100.165 52.2842L100.189 51.778C99.0105 52.4245 97.9079 53.2009 96.9019 54.0927C95.036 55.6814 93.4728 57.5944 92.2877 59.7393C89.7611 59.2551 87.1448 59.6844 84.9054 60.9504C84.8923 60.9581 84.8808 60.9673 84.8678 60.9742C84.8678 61.1468 84.8747 61.3193 84.8785 61.4919C85.9988 60.8193 87.2332 60.3583 88.5202 60.132Z" fill="#D2E4FF"/>
<mask id="path-2-inside-1_6_2" fill="white">
<path d="M64.0621 85.5456C62.6304 84.4641 61.2388 83.3315 59.8874 82.1478C59.3783 81.7066 58.8809 81.2521 58.3956 80.7849C59.3006 78.4783 60.1993 76.1699 61.0916 73.8597C61.541 72.7016 61.992 71.5442 62.4445 70.3875C62.8919 69.4436 63.1275 68.4132 63.1348 67.3687C63.1163 66.9083 62.9826 66.46 62.746 66.0648C62.4668 65.6587 62.1112 65.3109 61.699 65.0408C60.9449 64.5239 60.0626 64.2256 59.1495 64.1787C57.433 64.126 55.7442 64.6213 54.3282 65.5931C52.9039 66.6863 51.7772 68.12 51.0516 69.7624C50.1865 71.433 49.5069 73.1878 48.7407 74.9013C48.3465 75.7826 47.9377 76.65 47.6324 77.5674C47.331 78.4682 47.1156 79.3955 46.9889 80.337C46.7505 82.0932 46.8835 83.88 47.3793 85.5816C47.6561 86.5103 48.0336 87.4058 48.5052 88.2523C48.7284 88.3459 48.9516 88.4387 49.1771 88.5261C51.2754 89.3568 53.4859 89.8697 55.7357 90.0478C57.4829 90.163 59.2372 90.1037 60.9727 89.8707C61.4735 89.8062 61.9698 89.728 62.4698 89.6406C62.6693 89.6053 62.8687 89.5639 63.0689 89.524C63.4463 88.4448 63.9048 87.3956 64.4402 86.3854C64.5108 86.252 64.5852 86.1201 64.6581 85.9881C64.4584 85.842 64.2598 85.6945 64.0621 85.5456ZM54.9042 81.9522L56.2396 81.2811C56.498 81.1515 56.7266 81.5404 56.4697 81.6708L55.1343 82.3411C54.8736 82.4715 54.645 82.0826 54.9042 81.9522ZM56.9851 82.5988L55.8231 83.6082C55.6045 83.7976 55.2862 83.4801 55.504 83.2899L56.6668 82.2797C56.8846 82.0903 57.2037 82.4078 56.9851 82.5988Z"/>
</mask>
<path d="M64.0621 85.5456C62.6304 84.4641 61.2388 83.3315 59.8874 82.1478C59.3783 81.7066 58.8809 81.2521 58.3956 80.7849C59.3006 78.4783 60.1993 76.1699 61.0916 73.8597C61.541 72.7016 61.992 71.5442 62.4445 70.3875C62.8919 69.4436 63.1275 68.4132 63.1348 67.3687C63.1163 66.9083 62.9826 66.46 62.746 66.0648C62.4668 65.6587 62.1112 65.3109 61.699 65.0408C60.9449 64.5239 60.0626 64.2256 59.1495 64.1787C57.433 64.126 55.7442 64.6213 54.3282 65.5931C52.9039 66.6863 51.7772 68.12 51.0516 69.7624C50.1865 71.433 49.5069 73.1878 48.7407 74.9013C48.3465 75.7826 47.9377 76.65 47.6324 77.5674C47.331 78.4682 47.1156 79.3955 46.9889 80.337C46.7505 82.0932 46.8835 83.88 47.3793 85.5816C47.6561 86.5103 48.0336 87.4058 48.5052 88.2523C48.7284 88.3459 48.9516 88.4387 49.1771 88.5261C51.2754 89.3568 53.4859 89.8697 55.7357 90.0478C57.4829 90.163 59.2372 90.1037 60.9727 89.8707C61.4735 89.8062 61.9698 89.728 62.4698 89.6406C62.6693 89.6053 62.8687 89.5639 63.0689 89.524C63.4463 88.4448 63.9048 87.3956 64.4402 86.3854C64.5108 86.252 64.5852 86.1201 64.6581 85.9881C64.4584 85.842 64.2598 85.6945 64.0621 85.5456ZM54.9042 81.9522L56.2396 81.2811C56.498 81.1515 56.7266 81.5404 56.4697 81.6708L55.1343 82.3411C54.8736 82.4715 54.645 82.0826 54.9042 81.9522ZM56.9851 82.5988L55.8231 83.6082C55.6045 83.7976 55.2862 83.4801 55.504 83.2899L56.6668 82.2797C56.8846 82.0903 57.2037 82.4078 56.9851 82.5988Z" fill="#D2E4FF"/>
<path d="M64.0621 85.5456L63.7608 85.9446L63.7613 85.945L64.0621 85.5456ZM59.8874 82.1478L60.2168 81.7717L60.2148 81.77L59.8874 82.1478ZM58.3956 80.7849L57.9301 80.6022L57.8081 80.9133L58.0488 81.1451L58.3956 80.7849ZM61.0916 73.8597L60.6254 73.6788L60.6251 73.6796L61.0916 73.8597ZM62.4445 70.3875L61.9927 70.1734L61.9852 70.1891L61.9789 70.2054L62.4445 70.3875ZM63.1348 67.3687L63.6348 67.3722L63.6349 67.3604L63.6344 67.3486L63.1348 67.3687ZM62.746 66.0648L63.1749 65.8079L63.1669 65.7945L63.158 65.7815L62.746 66.0648ZM61.699 65.0408L61.4163 65.4533L61.425 65.4591L61.699 65.0408ZM59.1495 64.1787L59.1752 63.6793L59.1649 63.679L59.1495 64.1787ZM54.3282 65.5931L54.0453 65.1808L54.0343 65.1883L54.0238 65.1964L54.3282 65.5931ZM51.0516 69.7624L51.4956 69.9924L51.5027 69.9786L51.509 69.9645L51.0516 69.7624ZM48.7407 74.9013L49.1971 75.1055L49.1971 75.1054L48.7407 74.9013ZM47.6324 77.5674L48.1066 77.726L48.1068 77.7252L47.6324 77.5674ZM46.9889 80.337L47.4843 80.4042L47.4844 80.4036L46.9889 80.337ZM47.3793 85.5816L46.8992 85.7215L46.9001 85.7245L47.3793 85.5816ZM48.5052 88.2523L48.0684 88.4956L48.1525 88.6466L48.3119 88.7134L48.5052 88.2523ZM49.1771 88.5261L49.3612 88.0612L49.3579 88.0599L49.1771 88.5261ZM55.7357 90.0478L55.6962 90.5463L55.7028 90.5467L55.7357 90.0478ZM60.9727 89.8707L60.9089 89.3747L60.9061 89.3751L60.9727 89.8707ZM62.4698 89.6406L62.556 90.1331L62.5569 90.1329L62.4698 89.6406ZM63.0689 89.524L63.1666 90.0143L63.4466 89.9586L63.5408 89.6891L63.0689 89.524ZM64.4402 86.3854L64.882 86.6196L64.8823 86.6192L64.4402 86.3854ZM64.6581 85.9881L65.0957 86.2299L65.3085 85.8447L64.9534 85.5847L64.6581 85.9881ZM54.9042 81.9522L54.6797 81.5055L54.6796 81.5056L54.9042 81.9522ZM56.2396 81.2811L56.0154 80.8342L56.015 80.8344L56.2396 81.2811ZM56.4697 81.6708L56.694 82.1176L56.6959 82.1166L56.4697 81.6708ZM55.1343 82.3411L55.3579 82.7883L55.3587 82.788L55.1343 82.3411ZM56.9851 82.5988L57.313 82.9763L57.3141 82.9753L56.9851 82.5988ZM55.8231 83.6082L56.1506 83.986L56.151 83.9856L55.8231 83.6082ZM55.504 83.2899L55.1761 82.9124L55.1751 82.9133L55.504 83.2899ZM56.6668 82.2797L56.9947 82.6572L56.9949 82.657L56.6668 82.2797ZM64.3635 85.1466C62.9414 84.0724 61.5592 82.9475 60.2168 81.7717L59.5579 82.5239C60.9184 83.7156 62.3194 84.8558 63.7608 85.9446L64.3635 85.1466ZM60.2148 81.77C59.7124 81.3345 59.2214 80.8859 58.7424 80.4247L58.0488 81.1451C58.5404 81.6184 59.0442 82.0787 59.5599 82.5257L60.2148 81.77ZM58.861 80.9675C59.7664 78.6601 60.6654 76.3509 61.558 74.0399L60.6251 73.6796C59.7332 75.9889 58.8349 78.2965 57.9301 80.6022L58.861 80.9675ZM61.5577 74.0406C62.007 72.8829 62.4578 71.7259 62.9102 70.5697L61.9789 70.2054C61.5262 71.3624 61.0751 72.5202 60.6254 73.6788L61.5577 74.0406ZM62.8963 70.6017C63.375 69.5919 63.627 68.4896 63.6348 67.3722L62.6348 67.3652C62.6281 68.3369 62.4089 69.2953 61.9927 70.1734L62.8963 70.6017ZM63.6344 67.3486C63.6126 66.8047 63.4546 66.275 63.1749 65.8079L62.317 66.3216C62.5107 66.6451 62.6201 67.012 62.6352 67.3887L63.6344 67.3486ZM63.158 65.7815C62.842 65.3219 62.4395 64.9283 61.973 64.6226L61.425 65.4591C61.7828 65.6935 62.0916 65.9955 62.3339 66.348L63.158 65.7815ZM61.9817 64.6284C61.1516 64.0594 60.1803 63.731 59.1752 63.6794L59.1239 64.6781C59.9449 64.7202 60.7383 64.9885 61.4163 65.4533L61.9817 64.6284ZM59.1649 63.679C57.3422 63.6229 55.5489 64.149 54.0453 65.1808L54.6111 66.0053C55.9395 65.0937 57.5238 64.629 59.1342 64.6785L59.1649 63.679ZM54.0238 65.1964C52.533 66.3407 51.3537 67.8413 50.5943 69.5604L51.509 69.9645C52.2007 68.3987 53.2748 67.0319 54.6327 65.9897L54.0238 65.1964ZM50.6076 69.5325C49.7344 71.2187 49.036 73.0161 48.2843 74.6972L49.1971 75.1054C49.9779 73.3595 50.6386 71.6472 51.4956 69.9924L50.6076 69.5325ZM48.2843 74.6971C47.896 75.5651 47.4732 76.4621 47.158 77.4095L48.1068 77.7252C48.4021 76.8379 48.7969 76 49.1971 75.1055L48.2843 74.6971ZM47.1582 77.4087C46.8468 78.3395 46.6242 79.2976 46.4934 80.2703L47.4844 80.4036C47.6069 79.4935 47.8152 78.5969 48.1066 77.726L47.1582 77.4087ZM46.4934 80.2697C46.2457 82.0953 46.3839 83.9527 46.8992 85.7215L47.8593 85.4418C47.3832 83.8073 47.2554 82.0911 47.4843 80.4042L46.4934 80.2697ZM46.9001 85.7245C47.1873 86.688 47.5791 87.6173 48.0684 88.4956L48.942 88.009C48.4882 87.1943 48.1248 86.3325 47.8585 85.4388L46.9001 85.7245ZM48.3119 88.7134C48.5354 88.8071 48.764 88.9022 48.9963 88.9923L49.3579 88.0599C49.1392 87.9752 48.9215 87.8847 48.6985 87.7912L48.3119 88.7134ZM48.9931 88.991C51.1376 89.8401 53.3969 90.3642 55.6962 90.5463L55.7751 89.5494C53.575 89.3752 51.4132 88.8736 49.3612 88.0612L48.9931 88.991ZM55.7028 90.5467C57.4832 90.6641 59.2708 90.6037 61.0392 90.3662L60.9061 89.3751C59.2036 89.6037 57.4826 89.6619 55.7686 89.5489L55.7028 90.5467ZM61.0365 90.3666C61.5466 90.3009 62.0505 90.2215 62.556 90.1331L62.3837 89.148C61.889 89.2345 61.4004 89.3115 60.9089 89.3747L61.0365 90.3666ZM62.5569 90.1329C62.7634 90.0964 62.9718 90.0531 63.1666 90.0143L62.9712 89.0336C62.7656 89.0746 62.5751 89.1142 62.3827 89.1482L62.5569 90.1329ZM63.5408 89.6891C63.91 88.6336 64.3583 87.6075 64.882 86.6196L63.9985 86.1513C63.4512 87.1837 62.9827 88.2559 62.5969 89.3589L63.5408 89.6891ZM64.8823 86.6192C64.95 86.4911 65.02 86.367 65.0957 86.2299L64.2204 85.7464C64.1504 85.8731 64.0716 86.0129 63.9982 86.1517L64.8823 86.6192ZM64.9534 85.5847C64.7556 85.4399 64.5588 85.2937 64.3629 85.1462L63.7613 85.945C63.9607 86.0952 64.1612 86.2441 64.3627 86.3916L64.9534 85.5847ZM55.1288 82.399L56.4641 81.7279L56.015 80.8344L54.6797 81.5055L55.1288 82.399ZM56.4637 81.7281C56.402 81.759 56.3195 81.7652 56.2443 81.7368C56.1799 81.7126 56.1398 81.6708 56.1171 81.6322C56.095 81.5948 56.0703 81.5268 56.0884 81.4376C56.1098 81.3317 56.1795 81.2573 56.2434 81.2249L56.6959 82.1166C56.8883 82.019 57.0258 81.8471 57.0685 81.6357C57.1079 81.4409 57.0581 81.2594 56.9787 81.1246C56.8233 80.8609 56.4375 80.6225 56.0154 80.8342L56.4637 81.7281ZM56.2453 81.2239L54.91 81.8943L55.3587 82.788L56.694 82.1176L56.2453 81.2239ZM54.9107 81.8939C54.9706 81.8639 55.0518 81.8573 55.1266 81.8852C55.191 81.9092 55.2317 81.951 55.255 81.9905C55.2776 82.0288 55.3024 82.0979 55.2837 82.188C55.2616 82.2944 55.1912 82.3676 55.1289 82.3989L54.6796 81.5056C54.4876 81.6021 54.3486 81.7727 54.3046 81.9847C54.264 82.1803 54.3136 82.3629 54.3936 82.4985C54.5509 82.7651 54.9378 82.9984 55.3579 82.7883L54.9107 81.8939ZM56.6572 82.2213L55.4952 83.2307L56.151 83.9856L57.313 82.9763L56.6572 82.2213ZM55.4956 83.2303C55.5472 83.1857 55.6245 83.1595 55.7034 83.1679C55.7713 83.1752 55.8208 83.2052 55.853 83.2374C55.8844 83.2687 55.9261 83.3295 55.9306 83.422C55.936 83.5314 55.8857 83.6204 55.8329 83.6665L55.1751 82.9133C55.0135 83.0545 54.9212 83.2544 54.9318 83.471C54.9416 83.6706 55.0357 83.8346 55.1468 83.9454C55.3644 84.1624 55.7961 84.2932 56.1506 83.986L55.4956 83.2303ZM55.8319 83.6673L56.9947 82.6572L56.3389 81.9023L55.1761 82.9124L55.8319 83.6673ZM56.9949 82.657C56.943 82.7022 56.8651 82.7284 56.786 82.72C56.718 82.7127 56.6685 82.6826 56.6362 82.6504C56.6049 82.619 56.5632 82.5582 56.5588 82.4657C56.5535 82.3564 56.6039 82.2679 56.6561 82.2223L57.3141 82.9753C57.4756 82.8342 57.568 82.6344 57.5576 82.4178C57.548 82.218 57.454 82.0538 57.3429 81.9429C57.1258 81.7259 56.6933 81.594 56.3387 81.9025L56.9949 82.657Z" fill="black" mask="url(#path-2-inside-1_6_2)"/>
<path d="M91.7637 78.0949C89.8462 76.1337 87.513 74.2599 84.7488 73.7575C83.4137 73.5242 82.0503 73.5015 80.7082 73.69C80.5487 73.7115 80.3899 73.7345 80.2319 73.7606C78.4378 74.0702 76.7036 74.6603 75.0931 75.5093C72.2275 77.0534 69.6921 79.144 67.6303 81.6629C66.5033 83.0072 65.5076 84.4563 64.6567 85.9903C64.5838 86.1222 64.5094 86.2541 64.4388 86.3876C63.9037 87.3979 63.4452 88.447 63.0674 89.5261C63.2362 89.4916 63.4065 89.4655 63.5767 89.4394C63.645 89.4287 63.7125 89.4134 63.7807 89.4049C64.7217 89.329 65.6683 89.3666 66.6002 89.5169C66.6142 89.5209 66.6278 89.526 66.6409 89.5322C66.6582 89.5284 66.676 89.5269 66.6938 89.5276L66.726 89.5376H66.749C67.3779 89.622 68.0038 89.7278 68.6274 89.8482C68.7495 89.6015 68.887 89.3628 69.0392 89.1334C69.4627 88.4925 70.0104 87.943 70.6499 87.5174C71.1354 87.2226 71.6549 86.988 72.1969 86.8186C73.7825 86.2987 75.429 85.9878 77.095 85.8936C78.023 85.827 78.9547 85.8306 79.8822 85.9044C80.7573 85.9772 81.6095 86.1636 82.4754 86.3017C84.3452 86.5883 86.2328 86.7436 88.1243 86.7665C89.9711 86.8146 91.8188 86.7207 93.6512 86.4858C93.6643 86.485 93.6773 86.485 93.6903 86.4858C93.6958 86.4826 93.7014 86.4798 93.7072 86.4773L93.7939 86.4643C93.4769 86.069 93.2594 85.6035 93.1596 85.1067C93.0597 84.61 93.0805 84.0966 93.2202 83.6095C93.3136 83.2397 93.482 82.893 93.7149 82.591C93.9042 82.3838 94.1411 82.2258 94.4052 82.1308C94.4428 82.1154 94.4819 82.0986 94.5172 82.0855C94.6247 82.0504 94.734 82.0209 94.8447 81.9973C93.9623 80.5885 92.9292 79.28 91.7637 78.0949ZM66.1837 93.9938C66.081 96.4818 66.2895 98.9728 66.8042 101.409C67.2445 103.781 68.0238 106.077 69.1182 108.226C70.2173 108.343 71.318 108.419 72.4217 108.477C72.2913 108.216 72.1586 107.956 72.0382 107.692C71.5105 106.533 71.0716 105.335 70.7251 104.11C70.3033 102.591 70.0062 101.04 69.8369 99.4725C68.6483 97.7991 67.9486 95.8281 67.8159 93.7798C67.76 92.5754 67.9708 91.3736 68.4333 90.2601C67.9306 90.1649 67.4255 90.0825 66.9185 90.0131C66.5385 91.3115 66.2923 92.6454 66.1837 93.9938ZM95.1768 87.3862C94.814 87.2763 94.4768 87.0951 94.1851 86.8531L94.0424 86.8754C94.2664 87.7912 94.3921 88.73 94.5256 89.6619C94.7879 91.4919 94.9646 93.3312 95.0556 95.1796C95.1553 96.8479 95.1093 98.5216 94.9183 100.182C95.896 99.6221 96.8433 99.0107 97.7562 98.3503C97.8355 96.2763 97.7328 94.1992 97.4494 92.1431C97.299 90.5742 97.022 89.0201 96.621 87.4959C96.1373 87.5643 95.6446 87.5269 95.1768 87.3862Z" fill="#40C1DD"/>
<path d="M101.722 105.187C101.713 105.182 101.704 105.176 101.695 105.17C101.684 105.163 101.673 105.156 101.662 105.148C101.654 105.143 101.646 105.137 101.639 105.131C101.618 105.115 101.6 105.094 101.586 105.071C101.572 105.048 101.563 105.022 101.559 104.996C101.555 104.969 101.557 104.942 101.563 104.916C101.57 104.89 101.582 104.865 101.598 104.844L101.608 104.832C101.625 104.799 101.652 104.772 101.685 104.755C102.759 103.903 103.653 102.845 104.311 101.642C104.576 101.161 104.657 100.601 104.541 100.065C104.331 99.4718 103.652 99.5286 103.212 99.8231C102.676 100.177 102.388 100.806 101.945 101.254C101.535 101.66 101.047 101.978 100.51 102.189C98.3926 103.048 96.12 102.253 94.0453 101.641C93.1872 102.078 92.3727 102.595 91.6132 103.187C90.2046 104.235 88.8964 105.412 87.7054 106.702C86.5936 107.97 85.5832 109.323 84.6834 110.75C86.1004 111.442 87.5557 112.052 89.0423 112.578C91.764 113.542 94.5848 114.2 97.4523 114.539C98.1452 114.62 98.8398 114.681 99.5362 114.723C100.164 114.801 100.799 114.799 101.425 114.716C101.944 114.611 102.484 114.263 102.336 113.652C102.223 113.364 102.049 113.105 101.825 112.892C101.601 112.679 101.333 112.518 101.04 112.42C101.012 112.412 100.985 112.399 100.962 112.381C100.938 112.363 100.919 112.34 100.904 112.314C100.875 112.262 100.867 112.201 100.883 112.143C100.899 112.085 100.937 112.036 100.989 112.007C101.041 111.977 101.102 111.969 101.16 111.985C101.844 112.118 102.548 112.116 103.231 111.978C103.506 111.978 103.777 111.919 104.028 111.807C104.279 111.695 104.504 111.531 104.688 111.327C105.052 110.738 104.242 110.227 103.823 109.97C103.225 109.604 102.567 109.345 101.991 108.941C101.949 108.911 101.919 108.867 101.905 108.817C101.891 108.767 101.894 108.714 101.914 108.666C101.935 108.619 101.97 108.579 102.015 108.554C102.061 108.529 102.113 108.52 102.164 108.528C102.772 108.709 103.417 108.73 104.035 108.591C104.263 108.553 104.481 108.47 104.676 108.346C104.871 108.222 105.038 108.06 105.169 107.87C105.279 107.702 105.328 107.502 105.311 107.303C105.293 107.103 105.208 106.916 105.07 106.771C104.617 106.417 104.112 106.137 103.571 105.942C102.955 105.678 102.334 105.443 101.722 105.187ZM98.0812 111.612H97.1417C97.0819 111.612 97.0245 111.588 96.9822 111.546C96.9399 111.503 96.9162 111.446 96.9162 111.386C96.9162 111.326 96.9399 111.269 96.9822 111.227C97.0245 111.185 97.0819 111.161 97.1417 111.161H98.0812C98.141 111.161 98.1984 111.185 98.2407 111.227C98.283 111.269 98.3067 111.326 98.3067 111.386C98.3067 111.446 98.283 111.503 98.2407 111.546C98.1984 111.588 98.141 111.612 98.0812 111.612ZM98.7063 108.16C98.2656 108.218 97.8176 108.173 97.3971 108.029C97.1233 107.936 97.2437 107.501 97.5167 107.594C97.8988 107.725 98.3063 107.765 98.7063 107.709C98.9932 107.672 98.9894 108.123 98.7063 108.16Z" fill="#FFCEB6"/>
<path d="M103.299 105.349C102.93 105.196 102.563 105.042 102.193 104.895C102.9 104.28 103.545 103.599 104.121 102.86C104.745 102.115 105.068 101.164 105.027 100.193C105.006 99.9902 104.933 99.796 104.814 99.6295C104.696 99.463 104.536 99.3299 104.352 99.2431C104.137 99.1655 103.908 99.139 103.681 99.1657C103.455 99.1923 103.238 99.2713 103.048 99.3965C102.611 99.7142 102.238 100.111 101.948 100.566C101.633 100.975 101.238 101.314 100.786 101.563C99.9212 102.022 98.9396 102.212 97.9663 102.11C96.997 101.981 96.0405 101.769 95.107 101.477C94.8948 101.418 94.6826 101.357 94.4704 101.296C94.3615 101.263 94.2533 101.227 94.1436 101.2C94.1122 101.192 94.0801 101.187 94.0478 101.185C93.9527 101.187 93.8599 101.215 93.7801 101.266C93.7356 101.288 93.6934 101.316 93.6489 101.339C93.6311 101.379 93.6006 101.412 93.562 101.433C93.5235 101.454 93.4791 101.462 93.4357 101.455C93.0165 101.682 92.6092 101.93 92.2154 102.199C91.2207 102.896 90.2673 103.649 89.3599 104.456C87.3396 106.292 85.5882 108.403 84.1574 110.727C84.1302 110.777 84.1221 110.834 84.1347 110.889C84.1473 110.944 84.1797 110.993 84.2257 111.026C84.2303 111.026 84.2333 111.034 84.2379 111.036C87.1024 112.458 90.1224 113.542 93.237 114.266C94.7751 114.619 96.3332 114.878 97.9027 115.041C98.6881 115.122 99.475 115.179 100.263 115.211C100.873 115.284 101.492 115.205 102.064 114.981C102.351 114.849 102.579 114.615 102.702 114.324C102.826 114.033 102.836 113.706 102.73 113.408C102.594 113.062 102.368 112.759 102.076 112.53C102.542 112.521 103.007 112.477 103.467 112.399C103.789 112.383 104.103 112.295 104.386 112.141C104.67 111.986 104.914 111.77 105.102 111.508C105.46 110.844 104.968 110.248 104.454 109.863C104.061 109.586 103.645 109.342 103.212 109.133C103.626 109.173 104.044 109.114 104.431 108.963C104.819 108.812 105.166 108.572 105.444 108.262C105.605 108.052 105.709 107.804 105.743 107.541C105.777 107.278 105.741 107.011 105.639 106.767C105.411 106.421 105.087 106.149 104.706 105.986C104.552 105.909 104.399 105.832 104.261 105.769C103.943 105.615 103.621 105.482 103.299 105.349ZM105.063 106.77C105.201 106.916 105.286 107.103 105.304 107.303C105.322 107.502 105.272 107.702 105.162 107.869C105.031 108.06 104.864 108.222 104.669 108.346C104.474 108.47 104.256 108.553 104.029 108.591C103.41 108.73 102.765 108.708 102.157 108.528C102.106 108.52 102.054 108.529 102.008 108.554C101.963 108.579 101.928 108.619 101.908 108.666C101.888 108.714 101.884 108.767 101.898 108.817C101.912 108.867 101.942 108.91 101.984 108.941C102.56 109.345 103.218 109.604 103.816 109.97C104.236 110.227 105.043 110.737 104.681 111.327C104.497 111.531 104.273 111.695 104.022 111.807C103.771 111.919 103.499 111.977 103.224 111.978C102.541 112.116 101.837 112.118 101.153 111.985C101.095 111.969 101.034 111.977 100.982 112.007C100.93 112.036 100.892 112.085 100.876 112.143C100.86 112.2 100.868 112.262 100.897 112.314C100.927 112.366 100.976 112.404 101.034 112.42C101.326 112.518 101.594 112.679 101.818 112.892C102.042 113.105 102.217 113.364 102.33 113.652C102.477 114.265 101.937 114.611 101.419 114.716C100.792 114.798 100.157 114.801 99.5295 114.723C98.833 114.681 98.1384 114.62 97.4455 114.539C94.578 114.2 91.7572 113.542 89.0355 112.578C87.5489 112.052 86.0936 111.441 84.6767 110.75C85.5767 109.323 86.5871 107.97 87.6986 106.702C88.8896 105.412 90.1978 104.235 91.6064 103.187C92.366 102.595 93.1804 102.077 94.0386 101.641C96.1094 102.254 98.3859 103.048 100.503 102.189C101.04 101.978 101.528 101.66 101.939 101.254C102.381 100.805 102.672 100.18 103.206 99.8229C103.646 99.5315 104.325 99.4717 104.534 100.065C104.651 100.601 104.569 101.161 104.304 101.641C103.645 102.845 102.751 103.904 101.675 104.755C101.643 104.773 101.616 104.799 101.599 104.832C101.563 104.873 101.545 104.926 101.548 104.981C101.552 105.035 101.577 105.085 101.617 105.121L101.63 105.131C101.637 105.138 101.645 105.143 101.653 105.148C101.664 105.156 101.675 105.164 101.686 105.17L101.713 105.188C102.327 105.443 102.946 105.678 103.554 105.943C104.094 106.138 104.6 106.418 105.053 106.771L105.063 106.77ZM115.603 72.8586C115.279 70.4482 114.813 68.0592 114.207 65.7041C113.903 64.5235 113.528 63.3626 113.082 62.2281C112.942 61.7767 112.642 61.3921 112.238 61.1466C112.06 61.0637 111.858 61.0454 111.668 61.0948C111.478 61.1442 111.31 61.2582 111.195 61.4174C111.009 61.7436 110.889 62.1029 110.841 62.4751C110.756 62.8286 110.606 63.2988 110.166 63.3126C109.71 63.3264 109.289 62.8908 109.026 62.5671C108.67 62.0696 108.365 61.5387 108.113 60.9817C107.499 59.8312 106.933 58.6409 106.263 57.5234C105.78 56.7196 105.081 55.8743 104.065 55.8475C103.579 55.8793 103.116 56.0611 102.738 56.3678C102.361 56.6745 102.088 57.0909 101.958 57.5594C101.541 58.7644 101.949 60.0836 102.157 61.287C102.387 62.6293 102.486 63.9906 102.455 65.352C102.473 65.9099 102.416 66.4677 102.285 67.0103C102.164 67.4091 101.902 67.8862 101.411 67.8133C100.864 67.7313 100.375 67.1054 100.063 66.6904C99.7346 66.2471 99.4609 65.7661 99.2472 65.2577C98.8639 64.2376 98.5675 63.1869 98.3613 62.1169C98.2213 61.2239 97.793 60.4013 97.1418 59.7745C96.7978 59.5096 96.3724 59.3727 95.9385 59.3874C95.5046 59.4021 95.0894 59.5674 94.7641 59.855C94.0474 60.5353 93.5726 61.4311 93.4119 62.406C92.9314 65.0276 92.9268 67.7143 93.3981 70.3375C94.0709 74.2433 94.9997 78.1006 96.1785 81.8845C96.3065 81.8953 96.4308 81.9168 96.5558 81.9382C96.5643 81.847 96.5727 81.7557 96.5827 81.6644C96.7175 79.9324 97.3391 78.2738 98.3759 76.8799C99.5992 75.4488 101.188 74.3763 102.972 73.7767C104.797 73.1146 106.737 72.8258 108.675 72.9276C110.509 72.9875 112.294 73.5404 113.841 74.5283C114.487 74.9682 115.062 75.5047 115.545 76.1191C115.731 76.3539 115.905 76.5989 116.063 76.8531C115.943 75.5175 115.789 74.186 115.603 72.8586Z" fill="black"/>
<path d="M93.9565 85.949C94.3472 86.4979 94.9282 86.8818 95.5864 87.0257C96.2446 87.1696 96.9328 87.0633 97.5169 86.7275C97.5687 86.6991 97.6294 86.6916 97.6865 86.7068C97.7437 86.7219 97.7928 86.7584 97.8237 86.8088C98.6252 88.4817 99.9899 89.8193 101.679 90.587C103.161 91.2242 104.764 91.5299 106.376 91.4826C107.989 91.4353 109.572 91.0362 111.014 90.3132C112.411 89.6669 113.649 88.7194 114.637 87.5386C115.625 86.3577 116.34 84.9728 116.73 83.4831C116.74 83.4452 116.76 83.4107 116.787 83.3829C116.815 83.3552 116.849 83.3352 116.887 83.3251C117.348 83.2573 117.79 83.0983 118.189 82.8574C118.587 82.6166 118.934 82.2986 119.208 81.9223C119.446 81.5582 119.568 81.1309 119.559 80.6961C119.55 80.2613 119.41 79.8394 119.158 79.4856C118.878 79.1817 118.497 78.9899 118.086 78.946C117.675 78.9021 117.262 79.0091 116.924 79.247C116.871 79.2764 116.809 79.2838 116.751 79.2676C116.692 79.2514 116.643 79.2128 116.613 79.1604C116.604 79.1453 116.598 79.1294 116.593 79.1128C116.322 78.1489 115.864 77.2479 115.244 76.4618C114.624 75.6757 113.855 75.02 112.98 74.5323C111.418 73.7221 109.677 73.3185 107.918 73.3588C106.064 73.3582 104.228 73.7247 102.517 74.4372C100.876 75.0788 99.4505 76.173 98.4066 77.5926C97.5434 78.9783 97.053 80.5635 96.9831 82.1946C96.9817 82.2547 96.9568 82.3118 96.9138 82.3538C96.8708 82.3958 96.8131 82.4193 96.753 82.4193C96.7353 82.4186 96.7179 82.4161 96.7008 82.4116C95.9795 82.2328 95.2204 82.2837 94.5295 82.5574C94.2632 82.706 94.0383 82.9188 93.8751 83.1763C93.7118 83.4339 93.6154 83.7281 93.5945 84.0323C93.4751 84.694 93.604 85.3765 93.9565 85.949ZM116.864 81.3317C117.235 80.9779 117.612 80.6317 117.996 80.2932C118.213 80.1015 118.533 80.4198 118.315 80.6115C117.931 80.9505 117.554 81.2969 117.183 81.6508C116.966 81.8517 116.65 81.5311 116.86 81.3317H116.864ZM109.138 86.4897C108.487 86.6211 107.812 86.5503 107.203 86.2868C106.594 86.0232 106.081 85.5796 105.731 85.0156C105.707 84.9985 105.687 84.9755 105.673 84.9487C105.66 84.9219 105.653 84.8921 105.655 84.8622C105.652 84.8314 105.655 84.8005 105.665 84.7711C105.674 84.7416 105.689 84.7143 105.708 84.6907C105.728 84.667 105.753 84.6475 105.78 84.6332C105.807 84.619 105.837 84.6102 105.868 84.6075C105.89 84.6041 105.913 84.6041 105.935 84.6075C107.803 84.8676 109.701 84.415 111.251 83.3397C111.304 83.3115 111.365 83.3046 111.422 83.3203C111.479 83.336 111.528 83.3732 111.558 83.4241C111.577 83.4578 111.588 83.4958 111.588 83.5345C111.546 84.224 111.286 84.8823 110.844 85.4137C110.403 85.9451 109.804 86.322 109.134 86.4897H109.138ZM111.468 76.018C111.674 75.6659 111.989 75.3909 112.366 75.2353C112.743 75.0797 113.16 75.0521 113.554 75.1567C113.582 75.1645 113.609 75.1779 113.633 75.1961C113.656 75.2143 113.676 75.2369 113.69 75.2627C113.705 75.2884 113.714 75.3168 113.718 75.3462C113.722 75.3755 113.719 75.4054 113.712 75.4339C113.704 75.4625 113.69 75.4892 113.672 75.5126C113.654 75.536 113.631 75.5555 113.606 75.5702C113.58 75.5848 113.551 75.5942 113.522 75.5979C113.493 75.6016 113.463 75.5994 113.434 75.5915C113.136 75.512 112.82 75.533 112.535 75.6512C112.25 75.7695 112.012 75.9785 111.858 76.2458C111.843 76.2714 111.823 76.2937 111.799 76.3116C111.775 76.3294 111.748 76.3424 111.72 76.3498C111.691 76.3573 111.661 76.3589 111.632 76.3548C111.602 76.3506 111.574 76.3407 111.548 76.3256C111.523 76.3104 111.5 76.2904 111.482 76.2667C111.465 76.243 111.452 76.2159 111.444 76.1871C111.437 76.1584 111.435 76.1284 111.439 76.099C111.443 76.0696 111.453 76.0413 111.468 76.0157V76.018ZM103.601 79.9296C104.083 80.0616 104.521 80.3188 104.871 80.6752C105.222 81.0315 105.471 81.4742 105.595 81.9583C105.61 81.9366 105.628 81.9179 105.65 81.9031C106.485 81.3573 107.426 80.9941 108.411 80.8375C109.397 80.6809 110.404 80.7343 111.367 80.9942L111.34 80.7833C111.287 80.2457 111.401 79.7049 111.666 79.2339C111.93 78.763 112.333 78.3845 112.819 78.1495C113.198 77.9632 113.622 77.8892 114.042 77.9361C114.461 77.9829 114.858 78.1488 115.187 78.4141C115.621 78.7819 115.942 79.2655 116.112 79.8087C116.283 80.3518 116.295 80.9321 116.149 81.482C115.859 82.5926 114.78 83.783 113.541 83.6894C113.223 83.6593 112.915 83.5606 112.638 83.4003C112.362 83.24 112.123 83.0218 111.939 82.7606C111.682 82.3723 111.513 81.9325 111.444 81.4721H111.417C110.489 81.197 109.513 81.128 108.556 81.2699C107.599 81.4118 106.684 81.7611 105.876 82.2935C105.846 82.3163 105.809 82.3291 105.77 82.3302C105.732 82.3313 105.694 82.3206 105.662 82.2997C105.708 82.5644 105.715 82.8342 105.685 83.1012C105.615 83.7502 105.336 84.3587 104.889 84.8346C104.442 85.3104 103.852 85.6276 103.209 85.7381C102.615 85.8488 102.002 85.7682 101.457 85.5078C100.912 85.2474 100.464 84.8207 100.177 84.2892C99.8225 83.6328 99.7071 82.8738 99.8501 82.1417C100.001 81.6085 100.323 81.1395 100.766 80.8063C101.148 80.4675 101.599 80.2139 102.087 80.0624C102.575 79.9108 103.09 79.8648 103.597 79.9273L103.601 79.9296ZM99.4505 78.2983C99.7146 77.9762 100.044 77.7136 100.417 77.5277C100.789 77.3419 101.197 77.2369 101.613 77.2199C101.904 77.2068 101.902 77.6578 101.613 77.6709C101.257 77.689 100.908 77.7828 100.591 77.9459C100.274 78.1091 99.9947 78.338 99.7726 78.6173C99.5824 78.8405 99.2656 78.5192 99.4466 78.296L99.4505 78.2983ZM95.015 84.4902C95.6285 84.4651 96.2421 84.4158 96.8557 84.3421C97.1441 84.3076 97.1403 84.7594 96.8557 84.7931C96.2421 84.8668 95.6285 84.9161 95.015 84.9412C94.7235 84.9511 94.7235 84.5002 95.0111 84.4879L95.015 84.4902Z" fill="#FFCEB6"/>
<path d="M93.2209 83.6064C93.0813 84.0935 93.0605 84.6069 93.1603 85.1036C93.2601 85.6004 93.4776 86.0659 93.7946 86.4612C94.1533 86.8991 94.6337 87.221 95.1752 87.3862C95.6425 87.5266 96.1347 87.564 96.6179 87.4959C96.7651 87.4759 96.9107 87.4453 97.0536 87.4046C97.0758 87.3984 97.098 87.3946 97.1203 87.3877C97.2606 87.343 97.3975 87.2881 97.5299 87.2236C98.274 88.688 99.4406 89.8954 100.879 90.6896C102.102 91.349 103.447 91.7535 104.831 91.8784C105.047 91.8992 105.263 91.9145 105.48 91.9229C105.556 91.9229 105.628 91.9321 105.701 91.9337C107.338 91.9625 108.963 91.6586 110.478 91.0403C111.993 90.4221 113.367 89.5025 114.516 88.3372C115.781 87.0616 116.681 85.4708 117.124 83.7299C117.643 83.6379 118.137 83.4386 118.575 83.1447C119.012 82.8509 119.384 82.4689 119.665 82.0234C119.916 81.5803 120.03 81.0736 119.996 80.5659C119.961 80.0582 119.778 79.5719 119.47 79.1671C119.157 78.822 118.737 78.5924 118.278 78.5153C117.819 78.4382 117.347 78.5181 116.939 78.7422C116.723 78.0791 116.428 77.4447 116.059 76.8531C115.9 76.5988 115.727 76.3537 115.54 76.1191C115.057 75.5047 114.482 74.9682 113.836 74.5283C112.289 73.5404 110.505 72.9874 108.67 72.9276C106.732 72.8258 104.793 73.1146 102.968 73.7767C101.183 74.3765 99.5942 75.449 98.3705 76.8799C97.3342 78.2741 96.7129 79.9326 96.578 81.6644C96.568 81.7557 96.5596 81.847 96.5512 81.9382C96.4262 81.9168 96.3019 81.8953 96.1738 81.8845C95.7284 81.847 95.2799 81.883 94.8462 81.9912C94.7355 82.0148 94.6262 82.0442 94.5187 82.0794C94.4811 82.0924 94.4419 82.1093 94.4067 82.1246C94.1426 82.2197 93.9057 82.3776 93.7164 82.5848C93.4825 82.8875 93.3138 83.2354 93.2209 83.6064ZM94.5248 82.561C95.2157 82.2874 95.9749 82.2364 96.6961 82.4153C96.7549 82.43 96.8171 82.4209 96.8692 82.3901C96.9214 82.3592 96.9592 82.309 96.9746 82.2504C96.979 82.2334 96.9816 82.2159 96.9822 82.1982C97.0522 80.5672 97.5425 78.9819 98.4058 77.5963C99.4496 76.1767 100.875 75.0825 102.516 74.4409C104.228 73.7283 106.063 73.3618 107.917 73.3625C109.676 73.3222 111.417 73.7258 112.979 74.536C113.854 75.0236 114.623 75.6794 115.243 76.4655C115.863 77.2516 116.321 78.1525 116.592 79.1165C116.61 79.1741 116.649 79.2225 116.702 79.2512C116.755 79.2799 116.818 79.2866 116.876 79.2699C116.892 79.265 116.908 79.2583 116.923 79.2499C117.261 79.0119 117.674 78.9048 118.085 78.9487C118.496 78.9926 118.877 79.1844 119.157 79.4885C119.409 79.8423 119.55 80.2642 119.559 80.699C119.568 81.1338 119.445 81.5611 119.207 81.9252C118.933 82.3016 118.587 82.6195 118.188 82.8603C117.79 83.1012 117.347 83.2602 116.886 83.328C116.849 83.3381 116.814 83.3581 116.786 83.3858C116.759 83.4136 116.739 83.4481 116.729 83.486C116.339 84.9757 115.624 86.3606 114.636 87.5415C113.648 88.7223 112.41 89.6698 111.013 90.3161C109.571 91.0391 107.988 91.4382 106.376 91.4855C104.763 91.5328 103.16 91.2271 101.678 90.5899C99.989 89.8221 98.6244 88.4846 97.8228 86.8117C97.7919 86.7613 97.7428 86.7248 97.6857 86.7097C97.6286 86.6945 97.5678 86.702 97.5161 86.7304C97.088 87.0016 96.5898 87.1413 96.0831 87.1322C95.5764 87.123 95.0835 86.9655 94.6655 86.679C94.2475 86.3925 93.9227 85.9897 93.7314 85.5204C93.54 85.0512 93.4906 84.5361 93.5891 84.039C93.6091 83.7346 93.7049 83.4399 93.8676 83.1819C94.0303 82.9238 94.2549 82.7104 94.521 82.561H94.5248Z" fill="black"/>
<path d="M105.662 82.2979C105.635 82.2814 105.612 82.2598 105.594 82.2344C105.576 82.209 105.563 82.1802 105.556 82.1497C105.548 82.1192 105.547 82.0875 105.552 82.0566C105.558 82.0257 105.569 81.9962 105.585 81.9696L105.593 81.9581C105.469 81.474 105.22 81.0312 104.869 80.6749C104.519 80.3186 104.081 80.0613 103.599 79.9294C103.092 79.8663 102.577 79.9118 102.089 80.0626C101.601 80.2135 101.151 80.4664 100.768 80.8045C100.325 81.1377 100.003 81.6067 99.8521 82.1399C99.7091 82.872 99.8246 83.631 100.179 84.2874C100.466 84.8189 100.914 85.2456 101.459 85.506C102.004 85.7664 102.617 85.847 103.211 85.7363C103.854 85.6258 104.444 85.3086 104.891 84.8328C105.338 84.3569 105.617 83.7484 105.687 83.0994C105.717 82.8323 105.708 82.5625 105.662 82.2979ZM102.145 82.9759C102.259 82.5714 102.427 82.1843 102.646 81.8254C102.676 81.7737 102.726 81.7363 102.784 81.7213C102.842 81.7064 102.904 81.7151 102.955 81.7456C103.007 81.7761 103.044 81.8259 103.059 81.884C103.074 81.9421 103.066 82.0038 103.035 82.0555C102.836 82.3815 102.683 82.7333 102.58 83.1009C102.564 83.1586 102.525 83.2075 102.473 83.237C102.421 83.2665 102.36 83.2741 102.302 83.2581C102.244 83.2422 102.195 83.2039 102.166 83.1519C102.136 83.0998 102.129 83.0381 102.145 82.9805V82.9759ZM115.187 78.4123C114.858 78.147 114.461 77.9811 114.041 77.9343C113.622 77.8874 113.198 77.9614 112.819 78.1477C112.332 78.3827 111.93 78.7612 111.665 79.2321C111.401 79.7031 111.287 80.2439 111.339 80.7815L111.367 80.9924C111.424 81.0078 111.481 81.0162 111.537 81.0331C111.59 81.0502 111.635 81.0864 111.663 81.1346C111.69 81.1827 111.699 81.2395 111.688 81.2939C111.676 81.3483 111.645 81.3964 111.6 81.429C111.555 81.4616 111.499 81.4763 111.444 81.4703C111.513 81.9307 111.682 82.3705 111.938 82.7588C112.123 83.02 112.361 83.2382 112.638 83.3985C112.914 83.5588 113.222 83.6575 113.541 83.6876C114.78 83.7843 115.858 82.5908 116.148 81.4802C116.295 80.9303 116.282 80.35 116.112 79.8069C115.942 79.2637 115.621 78.7801 115.187 78.4123ZM113.262 80.3167L112.846 81.1527C112.718 81.4127 112.329 81.1842 112.458 80.9226L112.873 80.0866C113.002 79.8258 113.391 80.0552 113.262 80.3167Z" fill="#40C1DD" fill-opacity="0.55"/>
<path d="M99.7656 78.6165C99.9877 78.3371 100.267 78.1083 100.584 77.9451C100.902 77.7819 101.25 77.6881 101.606 77.67C101.895 77.6569 101.897 77.2098 101.606 77.219C101.19 77.2361 100.782 77.341 100.41 77.5268C100.037 77.7127 99.7076 77.9753 99.4435 78.2974C99.2656 78.519 99.5823 78.8404 99.7656 78.6165ZM111.854 76.2457C112.008 75.9784 112.246 75.7694 112.531 75.6511C112.816 75.5329 113.132 75.5119 113.43 75.5914C113.459 75.5993 113.489 75.6015 113.518 75.5978C113.548 75.5941 113.576 75.5847 113.602 75.5701C113.627 75.5554 113.65 75.5359 113.668 75.5125C113.686 75.4891 113.7 75.4624 113.708 75.4338C113.715 75.4053 113.718 75.3754 113.714 75.3461C113.71 75.3167 113.701 75.2883 113.686 75.2625C113.672 75.2368 113.652 75.2142 113.629 75.196C113.605 75.1778 113.579 75.1644 113.55 75.1566C113.156 75.052 112.739 75.0796 112.362 75.2352C111.985 75.3908 111.67 75.6658 111.465 76.0179C111.449 76.0435 111.44 76.0718 111.435 76.1012C111.431 76.1306 111.433 76.1606 111.44 76.1893C111.448 76.2181 111.461 76.2451 111.479 76.2689C111.496 76.2926 111.519 76.3126 111.544 76.3277C111.57 76.3429 111.598 76.3528 111.628 76.3569C111.657 76.3611 111.687 76.3594 111.716 76.352C111.745 76.3446 111.772 76.3316 111.795 76.3138C111.819 76.2959 111.839 76.2736 111.854 76.248V76.2457ZM105.662 82.298C105.694 82.319 105.732 82.3297 105.77 82.3286C105.808 82.3275 105.845 82.3147 105.876 82.2919C106.684 81.7595 107.599 81.4101 108.556 81.2682C109.513 81.1263 110.489 81.1953 111.417 81.4704H111.444C111.499 81.4764 111.555 81.4617 111.6 81.4291C111.645 81.3966 111.676 81.3484 111.688 81.294C111.699 81.2397 111.691 81.1829 111.663 81.1347C111.635 81.0866 111.59 81.0504 111.537 81.0332C111.481 81.0164 111.424 81.0079 111.367 80.9926C110.404 80.7323 109.396 80.6787 108.411 80.8352C107.425 80.9917 106.484 81.3548 105.648 81.9007C105.627 81.9157 105.608 81.9344 105.592 81.9559C105.556 82.0078 105.542 82.0718 105.553 82.134C105.564 82.1962 105.599 82.2516 105.651 82.288L105.662 82.298Z" fill="black"/>
<path d="M36.3332 95.7616C37.623 95.2789 39.0176 95.1465 40.3752 95.3781C40.86 95.5041 41.3323 95.6738 41.7865 95.8851C42.3734 96.1205 42.9422 96.3986 43.4884 96.7173C44.6491 97.4855 45.5851 98.5482 46.2005 99.7967C46.6616 100.672 46.9911 101.611 47.1784 102.583C50.4423 103.852 53.7705 104.949 57.1493 105.87C58.061 102.907 59.2631 100.042 60.7381 97.3163C62.1621 94.5965 63.9803 92.1021 66.1338 89.914C65.2413 89.7769 64.3329 89.7789 63.4409 89.9202C62.3756 90.1334 61.301 90.3037 60.2196 90.4141C56.9357 90.7855 53.6105 90.4662 50.4573 89.4769C47.4092 88.4005 44.5072 86.9481 41.8187 85.1533C41.7763 85.1277 41.7434 85.089 41.7247 85.0432C41.706 84.9973 41.7027 84.9466 41.7151 84.8987L42.2927 82.5762C43.0719 79.4408 43.8773 76.3099 44.6282 73.1668C45.2571 70.5345 45.7503 67.1674 43.5897 65.0628C43.152 64.6245 42.612 64.3023 42.0184 64.1254C41.4248 63.9485 40.7965 63.9224 40.1904 64.0496C39.013 64.3953 37.9714 65.0967 37.2083 66.0575C36.3425 67.0892 35.5736 68.1983 34.9112 69.3709C34.179 70.5891 33.5133 71.846 32.917 73.1361C31.7181 75.7111 30.8353 78.4216 30.2877 81.2087C29.7332 83.9402 29.5944 86.7399 29.8759 89.5129C29.9266 89.9273 30.0076 90.3375 30.1182 90.7401C31.0442 91.0085 31.9308 91.3976 32.7551 91.8975C34.2917 92.8182 35.5331 94.1589 36.3332 95.7616ZM37.1906 86.777L38.6878 85.9334C38.7395 85.9028 38.8012 85.8941 38.8593 85.9091C38.9174 85.924 38.9672 85.9615 38.9977 86.0131C39.0282 86.0648 39.0369 86.1265 39.022 86.1846C39.007 86.2427 38.9696 86.2925 38.9179 86.323L37.4207 87.1667C37.3692 87.1972 37.3076 87.206 37.2496 87.1911C37.1915 87.1762 37.1418 87.1389 37.1113 87.0873C37.0808 87.0357 37.072 86.9741 37.0869 86.9161C37.1018 86.8581 37.1391 86.8083 37.1906 86.7778V86.777Z" fill="#D2E4FF"/>
<path d="M64.8713 96.7587C65.0247 96.4811 65.1832 96.2062 65.3468 95.9342C65.4112 95.8253 65.4764 95.7166 65.5424 95.6082C65.6278 95.4834 65.6686 95.3334 65.6582 95.1825C65.6582 94.559 65.6858 93.9347 65.748 93.3142C65.8498 92.3687 66.0211 91.432 66.2603 90.5116C65.6275 91.1865 65.0032 91.8691 64.4195 92.5824C63.7263 93.4406 63.086 94.3402 62.502 95.2761C60.4202 98.6222 58.7829 102.225 57.6317 105.994C58.8128 106.31 59.9999 106.602 61.1928 106.872C61.4258 105.626 61.7319 104.395 62.1093 103.185C62.808 100.954 63.7335 98.8009 64.8713 96.7587Z" fill="#40C1DD"/>
<path d="M79.2993 108.176C77.2195 108.482 75.1158 108.593 73.0153 108.509C71.9841 106.504 71.2212 104.373 70.7466 102.17C70.6185 101.551 70.5165 100.928 70.4275 100.303L70.3991 100.267C70.2038 100.007 70.0159 99.7426 69.8354 99.4726C70.0048 101.04 70.3018 102.591 70.7236 104.11C71.0701 105.335 71.509 106.533 72.0367 107.692C72.1586 107.956 72.2913 108.216 72.4202 108.477C71.317 108.423 70.2154 108.339 69.1167 108.226C68.0223 106.077 67.243 103.781 66.8027 101.409C66.288 98.973 66.0795 96.4819 66.1822 93.994C66.2902 92.6455 66.5359 91.3117 66.9155 90.0133C67.4217 90.0838 67.9271 90.1667 68.4303 90.2602C68.4901 90.1191 68.5584 89.9818 68.6274 89.8453C68.0038 89.7249 67.378 89.6152 66.749 89.5347H66.726L66.6938 89.5247C66.676 89.524 66.6582 89.5255 66.6409 89.5293C66.6277 89.5231 66.6141 89.5178 66.6002 89.5132C65.6682 89.3635 64.7217 89.3262 63.7808 89.402C63.7125 89.4104 63.645 89.4258 63.5767 89.4365C63.4065 89.4626 63.2362 89.4887 63.0675 89.5232C62.8673 89.5631 62.6679 89.6045 62.4684 89.6398C61.9714 89.7272 61.4714 89.8054 60.9713 89.8698C59.2358 90.1029 57.4815 90.1622 55.7343 90.047C53.4845 89.8689 51.274 89.356 49.1757 88.5253C48.9505 88.4371 48.7265 88.3458 48.5038 88.2515C47.9548 88.0232 47.4128 87.7784 46.8786 87.5175C45.2719 86.7077 43.7075 85.8165 42.1915 84.8476L44.5929 75.1935C45.3147 72.2896 46.2972 69.0898 44.9496 66.2112C44.6928 65.6417 44.3251 65.1292 43.8678 64.7035C43.4106 64.2779 42.873 63.9477 42.2866 63.7323C41.7036 63.5415 41.086 63.4798 40.4767 63.5516C39.8675 63.6234 39.2811 63.8269 38.7584 64.148C37.6897 64.8281 36.7725 65.7211 36.064 66.7711C35.2208 67.9524 34.4523 69.1854 33.763 70.4627C32.3503 73.0148 31.2394 75.7225 30.4527 78.5314C29.6671 81.321 29.2762 84.2068 29.2915 87.1048C29.273 88.2798 29.3805 89.4533 29.6121 90.6054C29.7816 90.6476 29.9503 90.6921 30.1175 90.7412C30.0069 90.3385 29.9259 89.9284 29.8751 89.514C29.5937 86.7409 29.7325 83.9413 30.287 81.2097C30.8346 78.4227 31.7174 75.7121 32.9163 73.1372C33.5126 71.8471 34.1783 70.5902 34.9104 69.372C35.5729 68.1994 36.3418 67.0902 37.2076 66.0586C37.9708 65.0973 39.0127 64.3957 40.1904 64.0499C40.7964 63.9222 41.4248 63.9477 42.0184 64.1241C42.6121 64.3005 43.1525 64.6221 43.5905 65.06C45.7511 67.1646 45.2579 70.5317 44.629 73.164C43.8781 76.3087 43.0728 79.438 42.2935 82.5735L41.716 84.8959C41.7035 84.9438 41.7069 84.9945 41.7255 85.0404C41.7442 85.0863 41.7771 85.1249 41.8195 85.1506C44.5081 86.9453 47.41 88.3977 50.4581 89.4741C53.6113 90.4634 56.9365 90.7827 60.2204 90.4113C61.3013 90.2972 62.3763 90.1324 63.4418 89.9174C64.3337 89.7762 65.2421 89.7741 66.1347 89.9113C63.9811 92.0993 62.1629 94.5937 60.7389 97.3135C59.2639 100.04 58.0618 102.905 57.1501 105.867C53.7713 104.947 50.4431 103.85 47.1792 102.58C47.2099 102.746 47.236 102.913 47.2559 103.081C49.7865 104.059 52.3536 104.937 54.9573 105.713C55.7151 105.938 56.4754 106.153 57.2383 106.359H57.2613C57.2682 106.364 57.2753 106.368 57.2828 106.371C58.6174 106.729 59.9591 107.06 61.308 107.363C61.3174 107.364 61.3269 107.364 61.3364 107.363L61.3563 107.373C63.8492 107.932 66.3697 108.359 68.9073 108.653H68.9135C69.1262 108.701 69.3436 108.724 69.5616 108.723C69.7871 108.746 70.0141 108.767 70.2404 108.787C71.091 108.864 71.9423 108.907 72.7952 108.948C72.8037 108.948 72.809 108.943 72.8175 108.942C72.9627 108.972 73.1113 108.982 73.2592 108.972C73.4955 108.983 73.7322 108.99 73.9695 108.996C74.4021 109.004 74.8349 109.002 75.268 108.99C76.8108 108.933 78.349 108.786 79.8746 108.549C79.6813 108.428 79.4895 108.304 79.2993 108.176ZM61.1891 106.873C59.9962 106.604 58.8091 106.311 57.628 105.994C58.7792 102.225 60.4165 98.6224 62.4984 95.2764C63.0823 94.3404 63.7227 93.4409 64.4158 92.5827C65.0066 91.8725 65.6205 91.1818 66.2566 90.5118C66.0174 91.4322 65.8461 92.3689 65.7443 93.3144C65.6837 93.9354 65.6537 94.5589 65.6545 95.1828C65.6649 95.3337 65.6241 95.4837 65.5387 95.6085C65.4727 95.7169 65.4076 95.8255 65.3431 95.9345C65.181 96.2075 65.0225 96.4823 64.8676 96.759C63.7283 98.8017 62.8015 100.956 62.1018 103.188C61.7257 104.398 61.4209 105.629 61.1891 106.875V106.873ZM61.6777 106.981C62.265 103.868 63.3029 100.856 64.7587 98.0421C65.0524 97.4715 65.3661 96.9124 65.6883 96.3548C65.7343 97.2836 65.8256 98.2101 65.9452 99.1328C66.14 100.779 66.4576 102.408 66.8955 104.007C67.3127 105.433 67.8566 106.819 68.5208 108.149C66.2213 107.881 63.9395 107.477 61.6777 106.984V106.981Z" fill="black"/>
<path d="M56.2394 81.2812L54.9041 81.9523C54.6448 82.0827 54.8734 82.4715 55.1342 82.3411L56.4695 81.6708C56.7265 81.5404 56.4979 81.1515 56.2394 81.2812ZM56.6666 82.2798L55.5039 83.2891C55.2845 83.4801 55.6044 83.7977 55.8229 83.6082L56.9849 82.5988C57.2051 82.4079 56.8845 82.0903 56.6666 82.2798ZM111.251 83.3474C109.701 84.4227 107.803 84.8753 105.934 84.6153C105.904 84.6091 105.873 84.609 105.843 84.6149C105.813 84.6208 105.784 84.6326 105.758 84.6496C105.733 84.6666 105.711 84.6885 105.693 84.7141C105.676 84.7397 105.664 84.7684 105.658 84.7986C105.655 84.8209 105.655 84.8437 105.658 84.8661C105.657 84.896 105.663 84.9258 105.677 84.9526C105.69 84.9794 105.71 85.0024 105.735 85.0195C106.081 85.6055 106.607 86.064 107.234 86.3263C107.862 86.5887 108.558 86.6409 109.218 86.4751C109.877 86.3093 110.466 85.9344 110.895 85.4065C111.324 84.8785 111.571 84.2259 111.599 83.5461C111.597 83.486 111.572 83.4288 111.529 83.3868C111.486 83.3448 111.429 83.3213 111.368 83.3214C111.328 83.3195 111.287 83.3285 111.251 83.3474ZM37.4182 87.1663L38.9154 86.3226C38.9671 86.2921 39.0045 86.2423 39.0194 86.1842C39.0344 86.1261 39.0257 86.0644 38.9952 86.0127C38.9646 85.9611 38.9149 85.9236 38.8567 85.9087C38.7986 85.8937 38.737 85.9024 38.6853 85.933L37.1881 86.7767C37.1366 86.8072 37.0992 86.8569 37.0843 86.915C37.0694 86.973 37.0782 87.0346 37.1087 87.0861C37.1393 87.1377 37.189 87.175 37.247 87.1899C37.3051 87.2048 37.3667 87.196 37.4182 87.1655V87.1663ZM65.9403 64.8721L65.9357 64.8499C65.9334 64.8367 65.9303 64.8236 65.9265 64.8108C64.5376 61.7068 63.5105 58.4533 62.8655 55.1145C62.6804 54.1588 62.527 53.1975 62.4053 52.2306C62.4039 52.1705 62.379 52.1133 62.336 52.0713C62.293 52.0293 62.2353 52.0058 62.1752 52.0059C62.1576 52.0065 62.1401 52.009 62.123 52.0135C60.7877 52.4622 60.1657 53.9563 59.8911 55.2272C59.6892 56.2893 59.6872 57.3796 59.8849 58.4425C60.0757 59.6294 60.4298 60.7842 60.9372 61.874C61.3664 62.8822 62.0167 63.781 62.8402 64.504C63.2367 64.8536 63.7159 65.096 64.2324 65.2084C64.749 65.3207 65.2856 65.2992 65.7915 65.146C65.8382 65.1317 65.8787 65.1022 65.9066 65.0621C65.9344 65.0221 65.9479 64.9738 65.9449 64.9251C65.9457 64.9073 65.9441 64.8895 65.9403 64.8721ZM48.1929 62.7192L39.7675 55.0224L37.376 52.8373C37.3318 52.7977 37.274 52.7767 37.2147 52.7787C37.1554 52.7807 37.0992 52.8055 37.0577 52.848C37.0148 52.8507 36.9742 52.8683 36.9429 52.8976C36.9115 52.927 36.8914 52.9664 36.8859 53.0091C36.6966 54.1376 36.8854 55.297 37.4228 56.3071C37.6947 56.8178 38.0022 57.3086 38.3432 57.7759C38.6787 58.2725 39.0391 58.7517 39.4231 59.2117C40.1325 60.0063 40.9241 60.7234 41.7847 61.3509C42.626 62.0229 43.5629 62.5658 44.5643 62.9616C45.6915 63.4026 46.9346 63.4505 48.0924 63.0973C48.1295 63.0856 48.1631 63.0647 48.1899 63.0366C48.2167 63.0084 48.236 62.9739 48.2458 62.9363C48.2557 62.8987 48.2559 62.8592 48.2464 62.8215C48.2369 62.7838 48.2179 62.7491 48.1914 62.7207L48.1929 62.7192Z" fill="black"/>
<path d="M119.103 103.927C118.388 103.805 117.693 103.485 117.699 102.759C117.714 102.563 117.768 102.373 117.857 102.198C117.946 102.023 118.069 101.867 118.219 101.74C118.407 101.565 118.612 101.411 118.832 101.28C118.61 101.298 118.386 101.27 118.174 101.197C117.963 101.124 117.769 101.008 117.605 100.856C117.514 100.766 117.442 100.657 117.394 100.538C117.346 100.419 117.323 100.291 117.325 100.162C117.379 99.7596 117.589 99.3941 117.909 99.1444C118.556 98.6066 119.284 98.1755 120.066 97.8674C120.33 97.7508 120.558 98.1389 120.297 98.257C119.526 98.5515 118.811 98.9748 118.182 99.5087C117.958 99.6844 117.813 99.9418 117.779 100.224C117.794 100.363 117.863 100.491 117.97 100.579C117.985 100.594 118.001 100.607 118.018 100.62C117.975 100.585 118.118 100.685 118.16 100.707C118.348 100.792 118.553 100.835 118.759 100.832C119.208 100.83 119.655 100.773 120.09 100.665C121.01 100.46 121.89 100.104 122.693 99.6115C123.267 99.3377 123.335 98.4879 123.213 97.9418C123.094 97.583 122.874 97.2663 122.579 97.0299C122.284 96.7935 121.927 96.6475 121.551 96.6095C121.152 96.5357 120.747 96.5077 120.343 96.5259C119.972 96.578 119.594 96.536 119.243 96.404C118.965 96.2652 118.745 96.0331 118.621 95.7482C118.498 95.4246 118.483 95.0699 118.579 94.7373C118.746 93.9169 118.87 93.0885 118.951 92.2553C118.98 91.9485 119.078 91.4024 118.715 91.2459C118.408 91.114 118.013 91.3441 117.788 91.5389C117.203 92.1073 116.763 92.807 116.503 93.5799C116.281 94.3143 116.008 95.032 115.684 95.7275C115.491 96.0509 115.22 96.3207 114.895 96.5118C114.571 96.7029 114.203 96.8093 113.827 96.8212C112.911 96.9177 111.991 96.9586 111.07 96.9439C110.078 98.2069 109.234 99.579 108.553 101.034C107.93 102.524 107.528 104.098 107.36 105.705C108.805 105.744 110.249 105.766 111.693 105.824C113.942 105.914 116.191 106.028 118.443 106.076C118.324 105.975 118.231 105.845 118.173 105.699C118.116 105.554 118.094 105.396 118.111 105.24C118.153 104.956 118.266 104.687 118.439 104.457C118.613 104.228 118.841 104.046 119.103 103.927ZM116.222 99.4129C115.812 100.119 115.473 100.864 115.209 101.637C115.116 101.911 114.681 101.791 114.774 101.517C115.049 100.707 115.404 99.9255 115.832 99.1843C115.862 99.1326 115.912 99.0952 115.97 99.0802C116.028 99.0653 116.09 99.074 116.142 99.1045C116.193 99.1351 116.231 99.1848 116.246 99.2429C116.261 99.3011 116.252 99.3627 116.222 99.4144V99.4129Z" fill="#FFCEB6"/>
<path d="M120.253 103.984C119.625 104.117 118.676 104.479 118.56 105.223C118.454 105.908 119.315 106.077 119.864 106.105H119.964C120.607 106.139 121.251 106.114 121.889 106.028C122.447 105.949 122.964 105.69 123.362 105.291C123.476 105.167 123.549 105.01 123.57 104.842C123.591 104.675 123.56 104.505 123.48 104.356C123.214 103.951 122.801 103.665 122.329 103.557C121.66 103.764 120.971 103.903 120.274 103.972L120.253 103.984ZM120.237 101.096C119.566 101.314 118.952 101.678 118.439 102.162C118.349 102.248 118.277 102.352 118.228 102.466C118.178 102.581 118.152 102.705 118.151 102.83C118.204 103.222 118.683 103.362 119.045 103.443C120.129 103.604 121.237 103.491 122.266 103.113C122.887 102.837 123.54 102.535 123.627 101.781C123.653 101.448 123.589 101.114 123.44 100.815C123.292 100.515 123.065 100.262 122.783 100.081C121.997 100.544 121.145 100.883 120.257 101.087C120.25 101.09 120.244 101.093 120.237 101.096Z" fill="#FFCEB6"/>
<path d="M124.076 101.779C124.09 101.596 124.081 101.411 124.049 101.229C124.022 101.066 123.974 100.906 123.908 100.754C123.742 100.393 123.495 100.075 123.187 99.8251C123.419 99.5597 123.583 99.2414 123.664 98.8981C123.745 98.5547 123.741 98.1968 123.651 97.8554C123.51 97.397 123.235 96.9909 122.862 96.6888C122.49 96.3867 122.035 96.2023 121.557 96.1589C121.306 96.1145 121.052 96.0889 120.797 96.0822C120.458 96.0714 120.113 96.1182 119.775 96.0975C119.541 96.0795 119.324 95.9692 119.171 95.791C119.018 95.6128 118.942 95.3812 118.96 95.1472C118.96 95.1211 118.966 95.095 118.97 95.0705C119.053 94.4891 119.194 93.9154 119.276 93.3325C119.401 92.7564 119.446 92.1659 119.41 91.5776C119.39 91.3518 119.284 91.1422 119.114 90.9919C118.945 90.8415 118.724 90.7619 118.497 90.7692C118.242 90.7993 117.995 90.8801 117.771 91.007C117.547 91.1338 117.35 91.3041 117.193 91.5078C116.483 92.4234 115.965 93.4733 115.672 94.5942C115.636 94.8923 115.538 95.1796 115.385 95.4379C115.232 95.6961 115.027 95.9195 114.782 96.0938C114.538 96.268 114.26 96.3894 113.965 96.45C113.671 96.5106 113.368 96.5091 113.075 96.4457C112.731 96.4698 112.387 96.4861 112.042 96.4948C111.878 96.4994 111.714 96.5025 111.55 96.504C111.353 96.4902 111.155 96.4902 110.958 96.504C110.947 96.5064 110.936 96.51 110.925 96.5147C110.695 96.5784 110.55 96.8982 110.418 97.0724C110.202 97.3623 109.99 97.6553 109.785 97.9536C108.987 99.1009 108.329 100.339 107.824 101.642C107.339 103.031 107.022 104.473 106.881 105.937C106.891 105.993 106.918 106.045 106.958 106.085C106.998 106.126 107.05 106.152 107.107 106.162C108.605 106.205 110.102 106.224 111.6 106.284C113.134 106.345 114.668 106.418 116.202 106.475C117.387 106.519 118.573 106.546 119.76 106.556C119.854 106.564 119.947 106.568 120.033 106.568C120.05 106.567 120.065 106.564 120.081 106.559C120.262 106.559 120.442 106.565 120.623 106.565C121.271 106.597 121.92 106.518 122.541 106.331C123.082 106.171 123.551 105.829 123.869 105.364C123.978 105.169 124.034 104.949 124.03 104.726C124.026 104.503 123.962 104.285 123.846 104.094C123.619 103.745 123.292 103.472 122.908 103.312C123.148 103.198 123.371 103.052 123.571 102.876C123.868 102.585 124.048 102.195 124.076 101.779ZM111.69 105.832C110.246 105.774 108.802 105.755 107.357 105.713C107.525 104.106 107.927 102.532 108.55 101.042C109.231 99.587 110.075 98.2149 111.067 96.9519C111.988 96.9667 112.908 96.9257 113.824 96.8292C114.2 96.8174 114.568 96.711 114.892 96.5198C115.217 96.3287 115.488 96.059 115.681 95.7355C116.005 95.04 116.278 94.3223 116.5 93.5879C116.76 92.815 117.2 92.1153 117.785 91.5469C118.01 91.3521 118.406 91.122 118.712 91.254C119.075 91.4073 118.977 91.9542 118.948 92.2633C118.867 93.0965 118.743 93.9249 118.576 94.7453C118.48 95.0779 118.495 95.4326 118.618 95.7562C118.742 96.0411 118.962 96.2732 119.24 96.412C119.591 96.544 119.969 96.586 120.339 96.5339C120.744 96.5157 121.149 96.5437 121.547 96.6175C121.924 96.6555 122.281 96.8015 122.576 97.0379C122.87 97.2743 123.091 97.591 123.21 97.9498C123.332 98.4959 123.264 99.3457 122.69 99.6195C121.887 100.113 121.007 100.468 120.087 100.673C119.652 100.781 119.205 100.838 118.756 100.84C118.549 100.843 118.345 100.8 118.157 100.715C118.115 100.693 117.972 100.593 118.015 100.628C117.998 100.615 117.982 100.602 117.967 100.587C117.859 100.499 117.791 100.371 117.775 100.232C117.81 99.9498 117.955 99.6924 118.179 99.5168C118.808 98.9828 119.523 98.5595 120.293 98.265C120.558 98.1469 120.329 97.7588 120.063 97.8754C119.281 98.1835 118.552 98.6146 117.906 99.1524C117.585 99.4021 117.376 99.7676 117.322 100.17C117.319 100.299 117.343 100.427 117.391 100.546C117.439 100.665 117.511 100.774 117.602 100.864C117.766 101.016 117.96 101.132 118.171 101.205C118.382 101.278 118.607 101.306 118.829 101.288C118.609 101.419 118.403 101.573 118.216 101.748C118.066 101.875 117.943 102.031 117.854 102.206C117.765 102.381 117.711 102.571 117.696 102.767C117.69 103.493 118.386 103.813 119.1 103.935C118.837 104.054 118.607 104.236 118.433 104.466C118.259 104.696 118.145 104.967 118.103 105.252C118.086 105.408 118.108 105.566 118.166 105.711C118.224 105.857 118.316 105.986 118.435 106.088C116.188 106.034 113.939 105.921 111.69 105.83V105.832ZM123.479 104.362C123.559 104.511 123.59 104.681 123.569 104.848C123.548 105.016 123.475 105.173 123.361 105.297C122.963 105.696 122.446 105.954 121.888 106.034C121.25 106.12 120.606 106.145 119.963 106.111H119.863C119.315 106.083 118.453 105.914 118.559 105.229C118.675 104.485 119.624 104.123 120.252 103.99L120.27 103.981C120.968 103.913 121.657 103.774 122.326 103.566C122.798 103.672 123.211 103.957 123.479 104.36V104.362ZM122.265 103.112C121.235 103.489 120.128 103.603 119.043 103.441C118.681 103.365 118.2 103.224 118.15 102.828C118.151 102.703 118.177 102.579 118.226 102.465C118.275 102.35 118.347 102.246 118.437 102.16C118.95 101.676 119.564 101.312 120.235 101.094C120.243 101.091 120.25 101.086 120.257 101.081C121.145 100.877 121.997 100.538 122.783 100.076C123.064 100.256 123.292 100.51 123.44 100.809C123.589 101.108 123.653 101.442 123.627 101.776C123.539 102.531 122.885 102.833 122.265 103.109V103.112ZM117.179 81.6505C117.55 81.2961 117.927 80.9497 118.311 80.6112C118.529 80.4194 118.21 80.1011 117.992 80.2929C117.608 80.6309 117.231 80.977 116.86 81.3314C116.65 81.5308 116.966 81.8514 117.179 81.6505ZM95.0111 84.9385C95.6247 84.9135 96.2383 84.8642 96.8519 84.7905C97.1364 84.7568 97.1403 84.305 96.8519 84.3395C96.2383 84.4132 95.6247 84.4625 95.0111 84.4876C94.7235 84.4998 94.7235 84.9508 95.0111 84.9385Z" fill="black"/>
<path d="M50.7643 109.492C50.1616 109.004 49.4611 108.651 48.7103 108.456C47.7631 108.314 46.7994 108.325 45.8555 108.487C45.8164 108.486 45.7783 108.474 45.7447 108.454C45.7112 108.434 45.6833 108.405 45.6638 108.372C45.6443 108.338 45.6338 108.299 45.6333 108.26C45.6327 108.221 45.6422 108.182 45.6607 108.148C46.5548 106.75 46.9699 105.1 46.8434 103.445C46.7109 102.045 46.2566 100.693 45.5158 99.4969C44.859 98.3443 43.8834 97.4057 42.7063 96.7941C41.8296 96.3071 40.8861 95.9518 39.906 95.7394C38.6738 95.6319 37.4334 95.8055 36.2781 96.2472C36.2682 96.2479 36.2582 96.2479 36.2482 96.2472C36.2282 96.2522 36.2075 96.2543 36.1868 96.2533H36.1807C36.1471 96.251 36.1148 96.2392 36.0877 96.2192C36.0605 96.1992 36.0396 96.172 36.0273 96.1406C35.1571 94.3154 33.7047 92.8314 31.8986 91.9221C28.3773 90.0813 24.0216 90.4089 20.3822 91.7288C17.2537 92.8625 14.4196 95.0177 13.2492 98.2268C13.2324 98.284 13.194 98.3324 13.1423 98.3618C13.0905 98.3913 13.0293 98.3995 12.9715 98.3848C12.0141 98.0995 11.008 98.0154 10.0165 98.1376C9.02495 98.2598 8.06941 98.5858 7.2099 99.095C5.67523 100.044 4.55841 101.541 4.08538 103.283C3.61236 105.024 3.81845 106.88 4.66196 108.475C5.54106 110.045 6.93772 111.261 8.6135 111.915C10.6259 112.667 12.8392 112.684 14.8629 111.964C15.067 111.894 15.1904 112.132 15.1176 112.295C14.9236 112.725 14.771 113.173 14.662 113.632C13.7493 117.44 15.646 121.762 18.7332 124.048C19.7342 124.831 20.9175 125.347 22.1724 125.548C23.4432 125.687 24.7276 125.637 25.9836 125.398C29.5045 124.826 32.8284 123.389 35.6568 121.215C35.8256 121.085 36.0871 120.77 36.3188 120.805C36.579 120.874 36.8308 120.972 37.0696 121.096C37.6111 121.32 38.1434 121.567 38.6711 121.821C40.7942 122.843 42.9893 124.16 45.4137 124.176C47.8066 124.163 50.1105 123.268 51.8849 121.662C52.698 120.933 53.3077 120.005 53.6543 118.969C54.005 117.763 54.0683 116.492 53.8391 115.257C53.4879 113.093 52.5843 110.83 50.7643 109.492Z" fill="#D2E4FF" fill-opacity="0.34"/>
<path d="M98.7065 107.707C98.3065 107.762 97.899 107.723 97.5169 107.592C97.2416 107.498 97.1235 107.934 97.3973 108.027C97.8178 108.171 98.2658 108.216 98.7065 108.158C98.9895 108.12 98.9934 107.669 98.7065 107.707ZM98.0814 111.161H97.1419C97.0821 111.161 97.0247 111.184 96.9824 111.227C96.9401 111.269 96.9164 111.326 96.9164 111.386C96.9164 111.446 96.9401 111.503 96.9824 111.546C97.0247 111.588 97.0821 111.612 97.1419 111.612H98.0814C98.1412 111.612 98.1986 111.588 98.2409 111.546C98.2832 111.503 98.3069 111.446 98.3069 111.386C98.3069 111.326 98.2832 111.269 98.2409 111.227C98.1986 111.184 98.1412 111.161 98.0814 111.161ZM101.186 95.4489C101.138 95.4534 101.093 95.4752 101.059 95.5102C100.599 95.9842 100.117 96.436 99.6246 96.8747C99.1741 97.2776 98.71 97.6652 98.2333 98.0367V97.9278C98.2563 97.3503 98.2563 96.7719 98.2379 96.1936C98.1603 93.9814 97.9281 91.7773 97.543 89.5975C97.418 88.8587 97.2552 88.1268 97.0552 87.4047C96.9123 87.4454 96.7668 87.476 96.6196 87.496C97.0205 89.0202 97.2976 90.5743 97.4479 92.1432C97.7313 94.1993 97.834 96.2763 97.7547 98.3504C96.8418 99.0108 95.8946 99.6222 94.9168 100.182C95.1079 98.5217 95.1538 96.8479 95.0541 95.1797C94.9636 93.3333 94.787 91.494 94.5241 89.6619C94.3907 88.73 94.2649 87.7912 94.0409 86.8755L94.1836 86.8532C94.0413 86.7353 93.9105 86.6041 93.7932 86.4613L93.7065 86.4743C93.7007 86.4768 93.6951 86.4796 93.6896 86.4828C93.6766 86.482 93.6636 86.482 93.6505 86.4828C91.8181 86.7177 89.9704 86.8116 88.1236 86.7635C86.2321 86.7407 84.3445 86.5853 82.4747 86.2987C81.6088 86.1606 80.7566 85.9742 79.8815 85.9014C78.954 85.8276 78.0223 85.824 77.0942 85.8906C75.4283 85.9848 73.7818 86.2958 72.1962 86.8156C71.6541 86.985 71.1347 87.2196 70.6492 87.5144C70.0097 87.94 69.462 88.4895 69.0385 89.1304C68.8861 89.3596 68.7485 89.5984 68.6267 89.8452C68.556 89.9812 68.4903 90.1196 68.4295 90.2602C67.967 91.3736 67.7562 92.5755 67.8121 93.7799C67.9448 95.8282 68.6445 97.7992 69.8331 99.4725C70.0126 99.7425 70.2013 100.009 70.3969 100.267L70.4253 100.303C71.2351 101.356 72.1307 102.339 73.1028 103.244C75.0259 105.058 77.0979 106.708 79.297 108.176C79.4873 108.304 79.6805 108.428 79.8708 108.551C80.8536 109.188 81.8612 109.786 82.8912 110.343C83.3222 110.575 83.7569 110.799 84.1951 111.017L84.2211 111.025C84.1751 110.992 84.1428 110.944 84.1302 110.889C84.1176 110.834 84.1257 110.776 84.1529 110.727C85.5837 108.402 87.3351 106.291 89.3554 104.456C90.2627 103.649 91.2162 102.895 92.2109 102.198C92.6046 101.93 93.0119 101.681 93.4312 101.454C93.4746 101.461 93.519 101.453 93.5575 101.432C93.596 101.411 93.6266 101.378 93.6444 101.338C93.6889 101.315 93.7311 101.287 93.7755 101.266C93.8553 101.214 93.9481 101.186 94.0432 101.184C94.2503 101.077 94.4589 100.971 94.6637 100.859C94.6999 100.852 94.7329 100.834 94.7581 100.807H94.768L94.7749 100.802C95.6877 100.295 96.5742 99.7425 97.431 99.1458C97.4759 99.1487 97.5203 99.136 97.5568 99.1097C98.3684 98.5307 99.1482 97.9086 99.8931 97.246C100.404 96.7942 100.902 96.3256 101.378 95.8385C101.418 95.7935 101.439 95.7346 101.436 95.6743C101.433 95.6141 101.407 95.5574 101.363 95.5164C101.34 95.493 101.312 95.4749 101.282 95.4633C101.251 95.4516 101.219 95.4467 101.186 95.4489ZM94.3853 100.493C94.0719 100.665 93.7556 100.831 93.4365 100.991C92.0467 100.6 90.728 99.9902 89.5302 99.1841C88.3308 98.32 87.2512 97.3008 86.3196 96.153C86.1317 95.9306 85.8142 96.2512 86.0006 96.4713C86.9591 97.6468 88.0694 98.6898 89.3025 99.573C90.5444 100.407 91.9122 101.037 93.3537 101.438C91.9694 102.244 90.6748 103.195 89.4919 104.275C88.1467 105.437 86.9309 106.741 85.8656 108.163C85.2954 108.933 84.7515 109.722 84.2349 110.529C80.7755 108.784 77.5536 106.603 74.6475 104.041C71.868 101.595 69.1014 98.7101 68.392 94.9312C67.8482 92.0365 68.9158 88.5835 71.8327 87.4269C73.293 86.8791 74.8215 86.5343 76.3756 86.4022C77.2728 86.3084 78.1753 86.2759 79.0769 86.3048C79.9561 86.345 80.8311 86.4503 81.6947 86.62C83.4555 86.9312 85.2359 87.1188 87.023 87.1815C88.8713 87.2662 90.7233 87.2249 92.566 87.058C92.8904 87.0266 93.2133 86.9859 93.5355 86.9445C93.7357 87.7521 93.8591 88.5774 93.9826 89.3989C94.1207 90.3192 94.2457 91.245 94.3408 92.1723C94.532 93.968 94.6206 95.7731 94.6062 97.5788C94.5933 98.554 94.5196 99.5274 94.3853 100.493ZM115.832 99.1872C115.404 99.9284 115.05 100.71 114.774 101.52C114.681 101.796 115.116 101.914 115.209 101.64C115.473 100.867 115.812 100.122 116.222 99.4158C116.252 99.3641 116.261 99.3024 116.246 99.2443C116.231 99.1862 116.193 99.1364 116.142 99.1059C116.09 99.0754 116.028 99.0667 115.97 99.0816C115.912 99.0966 115.862 99.134 115.832 99.1857V99.1872ZM88.8852 117.322C86.497 118.934 84.0084 120.391 81.4347 121.686C81.1754 121.817 81.4032 122.205 81.6648 122.076C84.2383 120.78 86.7268 119.323 89.1153 117.712C89.3546 117.55 89.1245 117.159 88.8852 117.322ZM91.3242 118.572C90.4301 121.046 89.2708 123.416 87.8666 125.641C87.7132 125.887 88.1013 126.113 88.2563 125.871C89.6797 123.612 90.8542 121.206 91.7591 118.694C91.8573 118.418 91.4255 118.301 91.3242 118.572ZM95.3371 119.004C95.3212 118.946 95.2829 118.897 95.2309 118.868C95.1788 118.838 95.1172 118.831 95.0595 118.847C95.0018 118.863 94.9529 118.901 94.9234 118.953C94.8939 119.005 94.8863 119.067 94.9023 119.124C95.6281 121.623 96.6078 124.04 97.826 126.339C97.9626 126.596 98.3514 126.369 98.2157 126.109C97.016 123.845 96.0514 121.465 95.3371 119.004ZM136.852 103.452C133.97 103.826 131.07 104.038 128.164 104.089C128.105 104.089 128.047 104.113 128.005 104.155C127.963 104.197 127.939 104.255 127.939 104.315C127.939 104.374 127.963 104.432 128.005 104.474C128.047 104.516 128.105 104.54 128.164 104.54C131.07 104.489 133.97 104.277 136.852 103.903C137.138 103.867 137.138 103.416 136.852 103.452ZM134.968 110.966C132.466 109.71 130.133 108.144 128.022 106.304C127.805 106.114 127.486 106.432 127.703 106.623C129.841 108.49 132.205 110.08 134.741 111.356C134.999 111.486 135.228 111.097 134.968 110.966ZM126.4 108.436C126.29 108.173 125.853 108.289 125.965 108.557C127.024 111.084 128.299 113.515 129.774 115.823C129.928 116.067 130.321 115.841 130.164 115.593C128.707 113.32 127.447 110.925 126.4 108.436ZM75.242 48.3088C74.8228 46.9676 74.2392 45.6833 73.5047 44.4854C72.9456 43.3518 72.5514 41.7971 73.4142 40.7003C73.5914 40.4748 73.2746 40.1534 73.0952 40.382C72.7723 40.8431 72.5645 41.3749 72.4892 41.9328C72.4138 42.4906 72.473 43.0584 72.6618 43.5888C73.0346 44.8742 73.8844 45.9473 74.409 47.1668C75.3478 49.3481 74.9612 51.7557 74.4167 53.9838C73.8591 56.2625 73.0852 58.5428 73.0629 60.912C73.0668 62.1259 73.2914 63.3289 73.7256 64.4624C74.2763 65.6578 74.6432 66.9295 74.814 68.2345C74.8838 69.7784 73.9803 71.0049 73.4971 72.4054C73.1136 73.5237 73.066 74.9449 73.9864 75.8193C74.1966 76.0195 74.5164 75.7012 74.3055 75.501C73.4825 74.7186 73.6037 73.437 73.9557 72.4583C74.3944 71.2373 75.1484 70.1405 75.2558 68.8159C75.2661 67.5525 74.9963 66.3025 74.4658 65.1558C73.9835 64.0432 73.6696 62.8649 73.5346 61.6598C73.3812 59.342 74.0876 57.074 74.6614 54.8574C75.2105 52.7374 75.7221 50.4948 75.242 48.3088Z" fill="black"/>
<path d="M75.3955 35.8797C75.148 35.4043 74.7456 35.0276 74.255 34.812C73.7643 34.5964 73.2148 34.5547 72.6972 34.6939C72.1739 34.8496 71.7108 35.1619 71.3705 35.5888C71.0301 36.0157 70.8287 36.5367 70.7935 37.0815C70.6923 38.232 71.3979 39.6471 72.6343 39.8251H72.6635C72.6735 39.8289 72.6837 39.8319 72.6941 39.8343C73.1662 39.8924 73.6451 39.8165 74.0761 39.6154C74.5072 39.4143 74.8729 39.096 75.1316 38.6968C75.4127 38.2889 75.5845 37.8158 75.6307 37.3226C75.6769 36.8295 75.5959 36.3327 75.3955 35.8797ZM74.8455 38.2972C74.6421 38.6699 74.3313 38.9727 73.9535 39.1664C73.5757 39.3601 73.1484 39.4357 72.7271 39.3833C72.2995 39.2693 71.9216 39.0171 71.6522 38.666C71.3828 38.3149 71.2371 37.8846 71.2376 37.442C71.2047 36.9748 71.3167 36.5088 71.5583 36.1074C71.7998 35.7061 72.1592 35.389 72.5875 35.1994C73.0016 35.0352 73.4597 35.0192 73.8842 35.1541C74.3087 35.289 74.6735 35.5664 74.9169 35.9395C75.1111 36.3047 75.2067 36.7143 75.1942 37.1278C75.1817 37.5413 75.0615 37.9444 74.8455 38.2972Z" fill="#48C8FF"/>
<path d="M84.4871 64.2827L84.5684 68.0839C84.5684 68.1437 84.5921 68.2011 84.6344 68.2434C84.6767 68.2856 84.7341 68.3094 84.7939 68.3094C84.8537 68.3094 84.911 68.2856 84.9533 68.2434C84.9956 68.2011 85.0194 68.1437 85.0194 68.0839L84.8782 61.4878L84.8675 60.9701L84.7325 54.6807L84.6512 50.8803C84.6512 50.8205 84.6275 50.7631 84.5852 50.7208C84.5429 50.6785 84.4855 50.6548 84.4257 50.6548C84.3659 50.6548 84.3086 50.6785 84.2663 50.7208C84.224 50.7631 84.2002 50.8205 84.2002 50.8803L84.4219 61.2523L84.4334 61.7846L84.4871 64.2827ZM49.4394 45.5367V55.891C49.4394 55.9508 49.4632 56.0082 49.5054 56.0505C49.5477 56.0928 49.6051 56.1165 49.6649 56.1165C49.7247 56.1165 49.7821 56.0928 49.8243 56.0505C49.8666 56.0082 49.8904 55.9508 49.8904 55.891V45.5367C49.8904 45.4768 49.8666 45.4195 49.8243 45.3772C49.7821 45.3349 49.7247 45.3112 49.6649 45.3112C49.6051 45.3112 49.5477 45.3349 49.5054 45.3772C49.4632 45.4195 49.4394 45.4768 49.4394 45.5367ZM27.0931 72.7648C27.2724 68.6454 27.2322 64.5192 26.9727 60.404C26.955 60.1156 26.5041 60.1133 26.5217 60.404C26.7812 64.5192 26.8214 68.6454 26.6421 72.7648C26.6298 73.0555 27.0808 73.0548 27.0931 72.7648ZM38.9631 27.1634L39.1011 42.8184C39.1134 44.2813 39.1262 45.744 39.1395 47.2064C39.1395 47.2662 39.1632 47.3236 39.2055 47.3658C39.2478 47.4081 39.3052 47.4319 39.365 47.4319C39.4248 47.4319 39.4821 47.4081 39.5244 47.3658C39.5667 47.3236 39.5905 47.2662 39.5905 47.2064L39.4532 31.5506L39.4141 27.1634C39.4141 27.1036 39.3903 27.0462 39.348 27.0039C39.3057 26.9616 39.2484 26.9379 39.1886 26.9379C39.1288 26.9379 39.0714 26.9616 39.0291 27.0039C38.9868 27.0462 38.9631 27.1036 38.9631 27.1634ZM94.086 36.8528L94.2394 47.0392C94.2394 47.099 94.2631 47.1563 94.3054 47.1986C94.3477 47.2409 94.4051 47.2647 94.4649 47.2647C94.5247 47.2647 94.582 47.2409 94.6243 47.1986C94.6666 47.1563 94.6904 47.099 94.6904 47.0392L94.5408 36.8528C94.5408 36.793 94.517 36.7356 94.4747 36.6933C94.4325 36.651 94.3751 36.6273 94.3153 36.6273C94.2555 36.6273 94.1981 36.651 94.1559 36.6933C94.1136 36.7356 94.0898 36.793 94.0898 36.8528H94.086ZM100.007 55.5651C99.9918 55.855 100.443 55.8542 100.458 55.5651C100.522 54.3885 100.575 53.2119 100.63 52.0369L100.654 51.5399C100.749 49.4767 100.831 47.413 100.901 45.3487C101.011 41.9407 101.083 38.5325 101.119 35.124C101.138 33.1947 101.147 31.2655 101.143 29.3363C101.143 29.2765 101.119 29.2191 101.077 29.1768C101.035 29.1345 100.977 29.1108 100.918 29.1108C100.858 29.1108 100.8 29.1345 100.758 29.1768C100.716 29.2191 100.692 29.2765 100.692 29.3363C100.699 32.7458 100.668 36.1548 100.601 39.5633C100.533 42.9718 100.428 46.3793 100.285 49.7858C100.257 50.45 100.22 51.1142 100.19 51.78L100.165 52.2862C100.113 53.3768 100.066 54.4713 100.007 55.5651ZM114.657 53.89C114.657 53.9498 114.681 54.0071 114.723 54.0494C114.766 54.0917 114.823 54.1155 114.883 54.1155C114.943 54.1155 115 54.0917 115.042 54.0494C115.085 54.0071 115.108 53.9498 115.108 53.89L115.138 52.6996L115.151 52.152L115.359 43.643L115.431 40.6946C115.431 40.6348 115.408 40.5775 115.365 40.5352C115.323 40.4929 115.266 40.4691 115.206 40.4691C115.146 40.4691 115.089 40.4929 115.046 40.5352C115.004 40.5775 114.98 40.6348 114.98 40.6946L114.73 50.9409L114.707 51.8429C114.704 52.0223 114.699 52.2013 114.694 52.3798L114.657 53.89ZM54.951 28.5002V35.8488C54.951 35.9086 54.9748 35.9659 55.017 36.0082C55.0593 36.0505 55.1167 36.0743 55.1765 36.0743C55.2363 36.0743 55.2937 36.0505 55.3359 36.0082C55.3782 35.9659 55.402 35.9086 55.402 35.8488V28.5002C55.402 28.4404 55.3782 28.3831 55.3359 28.3408C55.2937 28.2985 55.2363 28.2747 55.1765 28.2747C55.1167 28.2747 55.0593 28.2985 55.017 28.3408C54.9748 28.3831 54.951 28.4404 54.951 28.5002ZM123.381 72.9282V65.4117C123.381 65.3519 123.357 65.2945 123.315 65.2523C123.273 65.21 123.216 65.1862 123.156 65.1862C123.096 65.1862 123.039 65.21 122.996 65.2523C122.954 65.2945 122.93 65.3519 122.93 65.4117V72.9282C122.93 72.988 122.954 73.0454 122.996 73.0877C123.039 73.13 123.096 73.1537 123.156 73.1537C123.216 73.1537 123.273 73.13 123.315 73.0877C123.357 73.0454 123.381 72.988 123.381 72.9282ZM19.3833 49.2174C19.526 52.6658 19.6561 56.1147 19.7737 59.5642C19.7829 59.8541 20.2339 59.8549 20.2239 59.5642C20.1073 56.1153 19.9775 52.6663 19.8343 49.2174C19.822 48.9283 19.371 48.9268 19.3833 49.2174ZM71.7826 91.9672C71.2287 92.3767 70.8544 92.9843 70.7378 93.6631C70.6212 94.342 70.7713 95.0396 71.1568 95.6105C71.3247 95.8405 71.7167 95.6189 71.5464 95.3804C71.2206 94.9129 71.087 94.3379 71.1734 93.7747C71.2598 93.2114 71.5595 92.7029 72.0104 92.3546C72.2444 92.192 72.0204 91.7977 71.7826 91.9672ZM119.727 87.1206C120.856 85.8463 121.732 84.3686 122.307 82.7664C122.406 82.4926 121.971 82.3752 121.873 82.6468C121.322 84.1754 120.486 85.5856 119.409 86.8023C119.216 87.0186 119.535 87.3384 119.727 87.1206ZM119.993 88.3248C119.763 88.4928 119.984 88.8839 120.223 88.7144C122.402 87.1475 123.439 84.506 124.081 81.9941C124.089 81.9655 124.091 81.9357 124.088 81.9063C124.084 81.8769 124.075 81.8485 124.06 81.8228C124.045 81.797 124.026 81.7744 124.003 81.7562C123.979 81.7381 123.952 81.7246 123.924 81.7168C123.895 81.7089 123.865 81.7068 123.836 81.7104C123.807 81.7141 123.778 81.7235 123.753 81.7382C123.727 81.7528 123.704 81.7724 123.686 81.7957C123.668 81.8191 123.654 81.8459 123.647 81.8744C123.035 84.2574 122.067 86.8338 119.993 88.3248ZM24.0159 86.5485C24.5202 84.0033 25.6449 81.6219 27.2902 79.6156C27.4896 79.4047 27.1713 79.0849 26.9711 79.2965C25.2431 81.3884 24.0714 83.8828 23.5649 86.5485C23.5297 86.8361 23.9806 86.8338 24.0159 86.5485ZM22.0379 86.7594C22.8776 83.4516 24.3283 80.33 26.3154 77.5555C26.4849 77.3185 26.0937 77.0953 25.9265 77.3254C23.9185 80.1325 22.4522 83.2899 21.603 86.6351C21.587 86.6928 21.5946 86.7544 21.6241 86.8065C21.6536 86.8586 21.7025 86.8968 21.7602 86.9128C21.8179 86.9287 21.8795 86.9211 21.9316 86.8917C21.9837 86.8622 22.0219 86.8132 22.0379 86.7555V86.7594Z" fill="black"/>
<path d="M70.4276 100.303C70.5135 100.928 70.6185 101.551 70.7466 102.17C71.2213 104.373 71.9841 106.504 73.0154 108.508C75.1158 108.594 77.2196 108.482 79.2993 108.176C77.1002 106.708 75.0282 105.058 73.1051 103.244C72.133 102.339 71.2374 101.356 70.4276 100.303ZM110.886 96.4989C109.022 96.4723 107.165 96.2449 105.349 95.8209C104.463 95.6123 103.588 95.3562 102.729 95.0539C102.603 95.0094 102.478 94.9626 102.352 94.9159C103.324 93.8456 104.37 92.8448 105.481 91.9208C105.265 91.9121 105.048 91.8972 104.832 91.8763C103.448 91.7513 102.104 91.3469 100.88 90.6874C99.4422 89.8933 98.2757 88.6858 97.5315 87.2214C97.3991 87.286 97.2622 87.3408 97.1219 87.3855C97.0997 87.3924 97.0774 87.3963 97.0552 87.4024C97.2552 88.1245 97.418 88.8564 97.543 89.5952C97.9281 91.7751 98.1603 93.9791 98.2379 96.1914C98.2563 96.7697 98.2563 97.348 98.2333 97.9255V98.0344C98.71 97.6629 99.1741 97.2753 99.6246 96.8725C100.119 96.4351 100.597 95.98 101.059 95.508C101.093 95.4729 101.138 95.4511 101.186 95.4466C101.232 95.4424 101.279 95.4521 101.319 95.4747C101.36 95.4972 101.392 95.5314 101.413 95.5728C101.434 95.6143 101.442 95.661 101.435 95.7069C101.429 95.7528 101.409 95.7958 101.378 95.8301C100.901 96.3178 100.406 96.7873 99.8931 97.2375C99.1482 97.9002 98.3684 98.5223 97.5568 99.1013C97.5203 99.1275 97.4759 99.1403 97.431 99.1374C96.5735 99.7336 95.6882 100.286 94.7749 100.794L94.768 100.799H94.7581C94.7331 100.826 94.7 100.844 94.6637 100.851C94.4589 100.963 94.2503 101.069 94.0432 101.176C94.0756 101.178 94.1077 101.183 94.1391 101.191C94.2488 101.218 94.3569 101.255 94.4658 101.286C94.6775 101.348 94.8897 101.408 95.1024 101.468C96.0359 101.76 96.9925 101.971 97.9618 102.101C98.9351 102.203 99.9167 102.013 100.781 101.554C101.233 101.305 101.629 100.966 101.943 100.557C102.233 100.102 102.607 99.7051 103.043 99.3874C103.234 99.2622 103.451 99.1832 103.677 99.1566C103.903 99.1299 104.133 99.1565 104.347 99.234C104.532 99.3208 104.691 99.4539 104.81 99.6204C104.928 99.7869 105.001 99.9811 105.023 100.184C105.063 101.155 104.74 102.106 104.116 102.851C103.541 103.59 102.895 104.271 102.189 104.886C102.558 105.036 102.926 105.188 103.295 105.34C103.617 105.473 103.939 105.605 104.254 105.756C104.392 105.822 104.545 105.894 104.699 105.973C105.479 106.059 106.261 106.126 107.044 106.145L107.071 106.14C107.016 106.135 106.966 106.109 106.929 106.069C106.893 106.029 106.873 105.976 106.873 105.921C107.014 104.457 107.33 103.015 107.816 101.626C108.321 100.323 108.979 99.0851 109.777 97.9378C109.981 97.6394 110.194 97.3465 110.41 97.0565C110.542 96.8801 110.688 96.5626 110.916 96.4989C110.906 96.4981 110.896 96.4981 110.886 96.4989Z" fill="#D2E4FF"/>
<path d="M86.3194 96.1532C87.251 97.301 88.3306 98.3202 89.53 99.1843C90.7278 99.9904 92.0464 100.6 93.4363 100.991C93.7553 100.83 94.0716 100.664 94.385 100.494C94.5201 99.5277 94.5946 98.5543 94.6082 97.579C94.6226 95.7733 94.534 93.9682 94.3429 92.1725C94.2449 91.2454 94.1255 90.3207 93.9847 89.3991C93.8612 88.5761 93.7377 87.7508 93.5375 86.9447C93.2154 86.9861 92.8925 87.0268 92.568 87.0582C90.7253 87.2251 88.8733 87.2664 87.025 87.1817C85.238 87.119 83.4575 86.9314 81.6967 86.6203C80.8331 86.4505 79.9581 86.3452 79.079 86.305C78.1773 86.2761 77.2748 86.3087 76.3776 86.4024C74.8236 86.5346 73.295 86.8793 71.8347 87.4271C68.9202 88.5838 67.8464 92.0368 68.394 94.9314C69.1035 98.7104 71.87 101.595 74.6496 104.041C77.5556 106.604 80.7776 108.784 84.237 110.529C84.7536 109.722 85.2974 108.933 85.8676 108.164C86.933 106.741 88.1488 105.437 89.4939 104.276C90.6769 103.195 91.9714 102.244 93.3557 101.438C91.9142 101.037 90.5464 100.408 89.3045 99.5732C88.0714 98.69 86.9611 97.647 86.0026 96.4715C85.8139 96.2514 86.133 95.9308 86.3194 96.1532ZM72.0104 92.3574C71.5594 92.7057 71.2597 93.2142 71.1733 93.7775C71.0869 94.3407 71.2205 94.9156 71.5463 95.3831C71.7166 95.6194 71.3247 95.8433 71.1567 95.6132C70.7712 95.0424 70.6211 94.3447 70.7378 93.6659C70.8544 92.9871 71.2287 92.3795 71.7826 91.97C72.0203 91.7982 72.2443 92.1925 72.0104 92.3574ZM65.945 99.1383C65.8225 98.2161 65.7368 97.2893 65.6881 96.3603C65.3659 96.9148 65.0522 97.474 64.7585 98.0477C63.3027 100.862 62.2648 103.873 61.6775 106.987C63.9384 107.487 66.2221 107.878 68.5206 108.158C67.8564 106.829 67.3124 105.443 66.8953 104.016C66.4572 102.416 66.1395 100.786 65.945 99.1383Z" fill="#D2E4FF"/>
</svg>
