<svg width="130" height="130" viewBox="0 0 128 130" fill="none" xmlns="http://www.w3.org/2000/svg">
<rect width="130" height="130" rx="20" fill="white"/>
<rect x="0.6" y="0.6" width="126.8" height="126.8" rx="19.4" stroke="#3A3D46" stroke-opacity="0.17" stroke-width="1.2"/>
<g filter="url(#filter0_d_4_3)">
<rect x="7" y="7" width="115" height="115" rx="18" fill="#FF0F00"/>
<rect x="7.6" y="7.6" width="113.8" height="113.8" rx="17.4" stroke="#453A39" stroke-opacity="0.18" stroke-width="1.2"/>
</g>
<path d="M105.953 40.1341C105.984 40.2528 106 40.3751 106 40.498V59.6016C106 59.8468 105.937 60.0877 105.818 60.2998C105.698 60.512 105.527 60.688 105.32 60.81L89.741 70.0414V88.3389C89.741 88.8368 89.4839 89.2965 89.0643 89.5472L56.5447 108.814C56.4702 108.858 56.389 108.886 56.3078 108.915C56.2774 108.926 56.2486 108.945 56.2165 108.954C55.9891 109.015 55.7502 109.015 55.5229 108.954C55.4856 108.943 55.4518 108.922 55.4163 108.909C55.3418 108.881 55.264 108.856 55.193 108.814L22.6801 89.5472C22.4735 89.4251 22.3019 89.2491 22.1825 89.037C22.0631 88.8248 22.0002 88.584 22 88.3389V31.0281C22 30.9027 22.0169 30.7808 22.0474 30.6624C22.0575 30.6224 22.0812 30.5858 22.0947 30.5458C22.1201 30.4726 22.1438 30.3978 22.181 30.3299C22.2064 30.2846 22.2436 30.248 22.2741 30.2062C22.313 30.1505 22.3485 30.0931 22.3942 30.0443C22.4331 30.0043 22.4838 29.9747 22.5278 29.9399C22.5769 29.8981 22.6209 29.8528 22.6767 29.8197H22.6784L38.9357 20.1861C39.1415 20.0642 39.3749 20 39.6124 20C39.8499 20 40.0832 20.0642 40.289 20.1861L56.5463 29.8197H56.5497C56.6039 29.8545 56.6495 29.8981 56.6986 29.9381C56.7426 29.9729 56.7916 30.0043 56.8305 30.0426C56.8779 30.0931 56.9117 30.1505 56.9524 30.2062C56.9811 30.248 57.02 30.2846 57.0437 30.3299C57.0826 30.3995 57.1046 30.4726 57.1317 30.5458C57.1452 30.5858 57.1689 30.6224 57.179 30.6642C57.2102 30.7828 57.2261 30.9051 57.2264 31.0281V66.8238L70.7736 58.7955V40.4963C70.7736 40.3744 70.7905 40.2508 70.821 40.1341C70.8328 40.0923 70.8548 40.0558 70.8683 40.0157C70.8954 39.9426 70.9191 39.8677 70.9563 39.7998C70.9817 39.7546 71.0189 39.718 71.0477 39.6762C71.0883 39.6205 71.1221 39.563 71.1695 39.5143C71.2084 39.4742 71.2574 39.4446 71.3014 39.4098C71.3522 39.368 71.3961 39.3228 71.4503 39.2897H71.452L87.711 29.656C87.9168 29.534 88.1501 29.4697 88.3876 29.4697C88.6252 29.4697 88.8585 29.534 89.0643 29.656L105.322 39.2897C105.379 39.3245 105.423 39.368 105.474 39.4081C105.516 39.4429 105.565 39.4742 105.604 39.5125C105.652 39.563 105.685 39.6205 105.726 39.6762C105.756 39.718 105.794 39.7546 105.817 39.7998C105.856 39.8677 105.878 39.9426 105.905 40.0157C105.92 40.0558 105.942 40.0923 105.953 40.1341V40.1341ZM103.29 58.7955V42.9095L97.6007 46.2803L89.741 50.9378V66.8238L103.292 58.7955H103.29ZM87.0326 87.5327V71.6363L79.3015 76.1806L57.2247 89.1485V105.195L87.0326 87.5327ZM24.7101 33.4395V87.5327L54.5146 105.193V89.1502L38.9441 80.0807L38.9391 80.0772L38.9323 80.0738C38.8798 80.0424 38.8359 79.9972 38.7868 79.9589C38.7445 79.924 38.6955 79.8962 38.6582 79.8579L38.6549 79.8526C38.6109 79.8091 38.5804 79.7551 38.5432 79.7064C38.5094 79.6594 38.4688 79.6193 38.4417 79.5706L38.44 79.5654C38.4096 79.5131 38.3909 79.4504 38.369 79.3912C38.347 79.339 38.3182 79.2903 38.3047 79.2345V79.2328C38.2878 79.1666 38.2844 79.097 38.2776 79.0291C38.2708 78.9769 38.2573 78.9246 38.2573 78.8724V41.4678L30.3993 36.8086L24.7101 33.4413V33.4395ZM39.614 23.0032L26.0686 31.0281L39.6107 39.0529L53.1545 31.0263L39.6107 23.0032H39.614ZM46.6583 73.0849L54.5163 68.4291V33.4395L48.8271 36.8103L40.9674 41.4678V76.4574L46.6583 73.0849ZM88.3876 32.4732L74.8438 40.498L88.3876 48.5229L101.93 40.4963L88.3876 32.4732ZM87.0326 50.9378L79.1729 46.2803L73.4837 42.9095V58.7955L81.3417 63.4513L87.0326 66.8238V50.9378ZM55.868 86.737L75.7337 75.0646L85.664 69.2318L72.1303 61.2122L56.548 70.4453L42.3462 78.8602L55.868 86.737Z" fill="white"/>
<defs>
<filter id="filter0_d_4_3" x="3" y="7" width="123" height="123" filterUnits="userSpaceOnUse" color-interpolation-filters="sRGB">
<feFlood flood-opacity="0" result="BackgroundImageFix"/>
<feColorMatrix in="SourceAlpha" type="matrix" values="0 0 0 0 0 0 0 0 0 0 0 0 0 0 0 0 0 0 127 0" result="hardAlpha"/>
<feOffset dy="4"/>
<feGaussianBlur stdDeviation="2"/>
<feComposite in2="hardAlpha" operator="out"/>
<feColorMatrix type="matrix" values="0 0 0 0 0 0 0 0 0 0 0 0 0 0 0 0 0 0 0.25 0"/>
<feBlend mode="normal" in2="BackgroundImageFix" result="effect1_dropShadow_4_3"/>
<feBlend mode="normal" in="SourceGraphic" in2="effect1_dropShadow_4_3" result="shape"/>
</filter>
</defs>
</svg>
