<svg width="128" height="128" viewBox="0 0 128 128" fill="none" xmlns="http://www.w3.org/2000/svg">
<rect width="128" height="128" rx="20" fill="white"/>
<rect x="0.6" y="0.6" width="126.8" height="126.8" rx="19.4" stroke="#3A3D46" stroke-opacity="0.17" stroke-width="1.2"/>
<g filter="url(#filter0_d_4_3)">
<rect x="8" y="8" width="112" height="112" rx="18" fill="#0C2D47"/>
<rect x="8.6" y="8.6" width="110.8" height="110.8" rx="17.4" stroke="#453A39" stroke-opacity="0.18" stroke-width="1.2"/>
</g>
<path d="M102.82 89.3824C97.8693 89.2566 94.0319 89.7611 90.8136 91.148C89.8851 91.5259 88.3995 91.5263 88.2757 92.7244C88.7709 93.2289 88.8328 94.0486 89.2661 94.7419C90.0096 96.0027 91.3084 97.7052 92.4845 98.5884C93.784 99.597 95.0842 100.606 96.4453 101.488C98.8593 103.002 101.583 103.884 103.935 105.398C105.297 106.28 106.657 107.415 108.019 108.361C108.7 108.865 109.133 109.685 110 110V109.811C109.566 109.243 109.443 108.424 109.01 107.793C108.391 107.163 107.772 106.595 107.153 105.965C105.358 103.506 103.13 101.362 100.716 99.597C98.7359 98.2097 94.403 96.3183 93.5987 93.9852C93.5987 93.9852 93.5364 93.9225 93.4749 93.8594C94.8363 93.7333 96.4453 93.2289 97.7455 92.8505C99.8497 92.2826 101.768 92.4091 103.935 91.8416C104.925 91.5894 105.915 91.2741 106.905 90.9588V90.3916C105.792 89.2566 104.987 87.7436 103.811 86.6716C100.654 83.8967 97.1881 81.186 93.5987 78.9162C91.6798 77.6551 89.2039 76.8353 87.1616 75.7637C86.4195 75.385 85.1812 75.1962 84.7482 74.5656C83.6337 73.1787 83.0147 71.3504 82.2104 69.7109C80.416 66.2428 78.6825 62.397 77.1351 58.7404C76.0216 56.2811 75.3407 53.8219 73.979 51.5525C67.6041 40.8338 60.6722 34.3396 50.0271 27.9712C47.7368 26.6473 45.0136 26.0798 42.1048 25.3865C40.558 25.3231 39.0102 25.1974 37.4631 25.1339C36.4727 24.6925 35.4823 23.4948 34.6157 22.9273C31.0886 20.6572 21.9899 15.7398 19.3905 22.234C17.7192 26.332 21.8664 30.367 23.2894 32.4483C24.3424 33.8982 25.7034 35.5374 26.4462 37.1769C26.8795 38.2481 27.0029 39.3839 27.4362 40.5185C28.4269 43.292 29.3547 46.3822 30.6549 48.9675C31.3358 50.2914 32.0783 51.6783 32.9448 52.8764C33.44 53.5696 34.3062 53.8853 34.4923 55.02C33.6261 56.2811 33.5638 58.1728 33.0683 59.7489C30.8403 66.8737 31.7072 75.7007 34.8633 80.9337C35.8534 82.5094 38.2055 85.9783 41.362 84.6538C44.1474 83.5191 43.5284 79.9252 44.3324 76.7727C44.5188 76.0152 44.395 75.5115 44.766 75.007V75.1335C45.6326 76.8984 46.4988 78.6013 47.3035 80.3666C49.2224 83.4557 52.5642 86.6716 55.3493 88.8156C56.8352 89.9499 58.0109 91.9047 59.8679 92.5983V92.4088H59.7437C59.3723 91.8412 58.8152 91.5894 58.3204 91.1476C57.2066 90.0133 55.9683 88.626 55.102 87.3649C52.503 83.8337 50.2124 79.9248 48.1701 75.8895C47.1801 73.9354 46.3131 71.7915 45.5088 69.8371C45.1371 69.0796 45.1371 67.9453 44.5184 67.5673C43.59 68.9542 42.2286 70.1523 41.5477 71.8545C40.3723 74.5656 40.2482 77.9073 39.8149 81.3748C39.5673 81.4386 39.6907 81.3748 39.5669 81.5016C37.5869 80.9964 36.906 78.9163 36.1628 77.1506C34.3059 72.6743 33.9964 65.4864 35.6061 60.3164C36.0394 58.9922 37.8964 54.8312 37.1536 53.57C36.7822 52.3719 35.5439 51.6783 34.8633 50.7328C34.059 49.5347 33.1921 48.022 32.6353 46.6975C31.1498 43.1666 30.407 39.2574 28.798 35.7265C28.0552 34.087 26.756 32.3852 25.7034 30.8718C24.5277 29.1696 23.2278 27.9712 22.2993 25.9537C21.9902 25.2604 21.5566 24.1254 22.0518 23.3687C22.1756 22.8642 22.4228 22.6754 22.9183 22.5493C23.723 21.8553 26.0133 22.7381 26.8172 23.1165C29.1075 24.0616 31.026 24.9451 32.9448 26.269C33.8111 26.8996 34.7395 28.0977 35.8534 28.4129H37.1532C39.134 28.854 41.3616 28.5391 43.2186 29.1062C46.4992 30.1778 49.4696 31.7543 52.1312 33.4568C60.2392 38.6899 66.9229 46.1299 71.4415 55.02C72.1843 56.4696 72.4934 57.7945 73.1743 59.3072C74.4745 62.397 76.0835 65.5495 77.3827 68.5759C78.6825 71.5389 79.9201 74.5656 81.7771 77.0249C82.7056 78.3484 86.4188 79.0424 88.09 79.736C89.328 80.3032 91.2469 80.808 92.3607 81.5012C94.4649 82.8247 96.5691 84.3388 98.5498 85.7884C99.5402 86.5451 102.634 88.1216 102.82 89.3824V89.3824Z" fill="white"/>
<path d="M39.6904 34.5911C38.6384 34.5911 37.896 34.718 37.1532 34.9068V35.0329H37.277C37.7726 36.0418 38.6384 36.7355 39.2571 37.6179C39.7526 38.6265 40.1855 39.6357 40.6811 40.6447C40.7426 40.5812 40.8045 40.5185 40.8045 40.5185C41.6715 39.8876 42.1044 38.8791 42.1044 37.3657C41.733 36.9246 41.6711 36.4832 41.3616 36.0418C40.9906 35.4109 40.1855 35.096 39.6904 34.5911V34.5911Z" fill="white"/>
<defs>
<filter id="filter0_d_4_3" x="4" y="8" width="120" height="120" filterUnits="userSpaceOnUse" color-interpolation-filters="sRGB">
<feFlood flood-opacity="0" result="BackgroundImageFix"/>
<feColorMatrix in="SourceAlpha" type="matrix" values="0 0 0 0 0 0 0 0 0 0 0 0 0 0 0 0 0 0 127 0" result="hardAlpha"/>
<feOffset dy="4"/>
<feGaussianBlur stdDeviation="2"/>
<feComposite in2="hardAlpha" operator="out"/>
<feColorMatrix type="matrix" values="0 0 0 0 0 0 0 0 0 0 0 0 0 0 0 0 0 0 0.25 0"/>
<feBlend mode="normal" in2="BackgroundImageFix" result="effect1_dropShadow_4_3"/>
<feBlend mode="normal" in="SourceGraphic" in2="effect1_dropShadow_4_3" result="shape"/>
</filter>
</defs>
</svg>
