<svg width="840" height="510" viewBox="0 0 840 510" fill="none" xmlns="http://www.w3.org/2000/svg">
<g clip-path="url(#clip0_5_32)">
<g filter="url(#filter0_ddd_5_32)">
<path d="M299.849 233.235L238.087 202.588C237.493 202.293 236.782 202.648 236.66 203.3L228.059 249.392C228.021 249.598 228.048 249.811 228.137 250L248.343 293.098C248.651 293.755 249.535 293.876 250.007 293.324L300.164 234.781C300.588 234.286 300.433 233.525 299.849 233.235Z" fill="#808080" fill-opacity="0.08"/>
<path d="M299.849 233.235L238.087 202.588C237.493 202.293 236.782 202.648 236.66 203.3L228.059 249.392C228.021 249.598 228.048 249.811 228.137 250L248.343 293.098C248.651 293.755 249.535 293.876 250.007 293.324L300.164 234.781C300.588 234.286 300.433 233.525 299.849 233.235Z" fill="url(#paint0_linear_5_32)" fill-opacity="0.7" style="mix-blend-mode:overlay"/>
<path d="M237.865 203.036L299.627 233.683C299.919 233.828 299.997 234.209 299.785 234.456L249.628 292.999C249.392 293.274 248.949 293.214 248.795 292.886L228.589 249.788C228.545 249.693 228.531 249.587 228.551 249.484L237.151 203.392C237.212 203.066 237.568 202.888 237.865 203.036Z" stroke="#151822" stroke-opacity="0.41"/>
</g>
<g filter="url(#filter1_ddd_5_32)">
<path d="M300.518 233.797L376.702 206.957C377.343 206.732 378.017 207.197 378.034 207.876L379.978 286.072C379.99 286.579 379.621 287.016 379.119 287.087L267.791 302.958C267.601 302.986 267.407 302.957 267.233 302.877L249.213 294.596C248.606 294.317 248.438 293.535 248.875 293.031L300.095 234.084C300.209 233.953 300.354 233.854 300.518 233.797Z" fill="#808080" fill-opacity="0.08"/>
<path d="M300.518 233.797L376.702 206.957C377.343 206.732 378.017 207.197 378.034 207.876L379.978 286.072C379.99 286.579 379.621 287.016 379.119 287.087L267.791 302.958C267.601 302.986 267.407 302.957 267.233 302.877L249.213 294.596C248.606 294.317 248.438 293.535 248.875 293.031L300.095 234.084C300.209 233.953 300.354 233.854 300.518 233.797Z" fill="url(#paint1_linear_5_32)" fill-opacity="0.7" style="mix-blend-mode:overlay"/>
<path d="M300.684 234.268L376.868 207.429C377.189 207.316 377.526 207.548 377.534 207.888L379.478 286.085C379.484 286.338 379.3 286.556 379.049 286.592L267.721 302.463C267.626 302.477 267.529 302.463 267.441 302.423L249.421 294.141C249.118 294.002 249.034 293.611 249.253 293.359L300.473 234.412C300.529 234.347 300.602 234.297 300.684 234.268Z" stroke="#151822" stroke-opacity="0.41"/>
</g>
<g filter="url(#filter2_ddd_5_32)">
<path d="M377.603 206.39L316.531 130.829C316.168 130.38 315.501 130.331 315.076 130.722L237.571 202.015C237.055 202.49 237.175 203.335 237.804 203.647L299.626 234.314C299.865 234.433 300.142 234.451 300.395 234.364L377.15 207.964C377.806 207.739 378.039 206.93 377.603 206.39Z" fill="#808080" fill-opacity="0.08"/>
<path d="M377.603 206.39L316.531 130.829C316.168 130.38 315.501 130.331 315.076 130.722L237.571 202.015C237.055 202.49 237.175 203.335 237.804 203.647L299.626 234.314C299.865 234.433 300.142 234.451 300.395 234.364L377.15 207.964C377.806 207.739 378.039 206.93 377.603 206.39Z" fill="url(#paint2_linear_5_32)" fill-opacity="0.7" style="mix-blend-mode:overlay"/>
<path d="M316.142 131.143L377.214 206.704C377.432 206.974 377.316 207.379 376.988 207.491L300.233 233.891C300.106 233.935 299.968 233.926 299.848 233.866L238.026 203.199C237.712 203.043 237.651 202.62 237.909 202.383L315.415 131.09C315.627 130.894 315.961 130.919 316.142 131.143Z" stroke="#151822" stroke-opacity="0.41"/>
</g>
<g filter="url(#filter3_ddd_5_32)">
<path d="M441.434 104H392.188C391.364 104 390.894 104.942 391.389 105.601L478.892 222.025C479.369 222.66 480.359 222.513 480.631 221.767L517.572 120.273C517.791 119.671 517.394 119.02 516.758 118.939L462.172 112.008C462.09 111.998 462.01 111.977 461.933 111.947L441.798 104.069C441.682 104.023 441.558 104 441.434 104Z" fill="#808080" fill-opacity="0.08"/>
<path d="M441.434 104H392.188C391.364 104 390.894 104.942 391.389 105.601L478.892 222.025C479.369 222.66 480.359 222.513 480.631 221.767L517.572 120.273C517.791 119.671 517.394 119.02 516.758 118.939L462.172 112.008C462.09 111.998 462.01 111.977 461.933 111.947L441.798 104.069C441.682 104.023 441.558 104 441.434 104Z" fill="url(#paint3_linear_5_32)" fill-opacity="0.7" style="mix-blend-mode:overlay"/>
<path d="M392.188 104.5H441.434C441.496 104.5 441.558 104.512 441.616 104.534L461.751 112.413C461.866 112.458 461.986 112.489 462.109 112.504L516.695 119.435C517.013 119.476 517.212 119.801 517.102 120.102L480.161 221.596C480.025 221.969 479.53 222.042 479.291 221.725L391.789 105.3C391.541 104.971 391.776 104.5 392.188 104.5Z" stroke="#151822" stroke-opacity="0.41"/>
</g>
<g filter="url(#filter4_ddd_5_32)">
<path d="M391.998 104.997L479.043 221.057C479.578 221.771 478.98 222.776 478.097 222.646L378.962 208.045C378.427 207.966 378.051 207.475 378.115 206.937L390.205 105.479C390.311 104.583 391.456 104.275 391.998 104.997Z" fill="#808080" fill-opacity="0.08"/>
<path d="M391.998 104.997L479.043 221.057C479.578 221.771 478.98 222.776 478.097 222.646L378.962 208.045C378.427 207.966 378.051 207.475 378.115 206.937L390.205 105.479C390.311 104.583 391.456 104.275 391.998 104.997Z" fill="url(#paint4_linear_5_32)" fill-opacity="0.7" style="mix-blend-mode:overlay"/>
<path d="M391.598 105.297L478.643 221.357C478.91 221.714 478.611 222.216 478.17 222.151L379.035 207.55C378.767 207.511 378.58 207.265 378.612 206.996L390.701 105.538C390.755 105.09 391.327 104.936 391.598 105.297Z" stroke="#151822" stroke-opacity="0.41"/>
</g>
<g filter="url(#filter5_ddd_5_32)">
<path d="M379.438 287.788L406.43 305.523C406.847 305.796 407.401 305.722 407.73 305.347L479.788 223.379C480.311 222.784 479.968 221.846 479.184 221.729L378.176 206.675C377.562 206.584 377.014 207.068 377.029 207.689L378.987 286.976C378.995 287.304 379.164 287.607 379.438 287.788Z" fill="#808080" fill-opacity="0.08"/>
<path d="M379.438 287.788L406.43 305.523C406.847 305.796 407.401 305.722 407.73 305.347L479.788 223.379C480.311 222.784 479.968 221.846 479.184 221.729L378.176 206.675C377.562 206.584 377.014 207.068 377.029 207.689L378.987 286.976C378.995 287.304 379.164 287.607 379.438 287.788Z" fill="url(#paint5_linear_5_32)" fill-opacity="0.7" style="mix-blend-mode:overlay"/>
<path d="M406.705 305.105L379.712 287.37L379.438 287.788L379.712 287.37C379.575 287.28 379.491 287.128 379.487 286.964L377.529 207.677C377.522 207.366 377.796 207.124 378.103 207.17L479.111 222.224C479.502 222.282 479.674 222.751 479.412 223.049L407.355 305.017C407.19 305.204 406.913 305.242 406.705 305.105Z" stroke="#151822" stroke-opacity="0.41"/>
</g>
<circle cx="300" cy="234" r="2" fill="#151822" fill-opacity="0.41"/>
<circle cx="249" cy="294" r="2" fill="#151822" fill-opacity="0.41"/>
<g opacity="0.2">
<rect x="564" width="1" height="781" fill="#0F0D4E"/>
<rect x="274" width="1" height="781" fill="#0F0D4E"/>
</g>
<g filter="url(#filter6_ddd_5_32)">
<path d="M389.974 104.542L316.83 130.527C316.18 130.758 315.954 131.562 316.387 132.098L377.019 207.167C377.574 207.853 378.681 207.537 378.79 206.661L391.301 105.607C391.392 104.869 390.675 104.293 389.974 104.542Z" fill="#808080" fill-opacity="0.08"/>
<path d="M389.974 104.542L316.83 130.527C316.18 130.758 315.954 131.562 316.387 132.098L377.019 207.167C377.574 207.853 378.681 207.537 378.79 206.661L391.301 105.607C391.392 104.869 390.675 104.293 389.974 104.542Z" fill="url(#paint6_linear_5_32)" fill-opacity="0.7" style="mix-blend-mode:overlay"/>
<path d="M316.997 130.999L390.141 105.013C390.492 104.889 390.85 105.177 390.805 105.546L378.293 206.6C378.239 207.038 377.685 207.196 377.408 206.852L316.776 131.784C316.559 131.516 316.673 131.114 316.997 130.999Z" stroke="#151822" stroke-opacity="0.41"/>
</g>
<g filter="url(#filter7_ddd_5_32)">
<path d="M406.34 305.053L479.095 223.02C479.544 222.515 480.354 222.59 480.701 223.169L519.628 288.092C519.85 288.462 519.81 288.933 519.528 289.259L492.609 320.49C492.501 320.615 492.364 320.711 492.21 320.77L458.205 333.836C457.934 333.94 457.63 333.921 457.374 333.784L406.616 306.598C406.047 306.293 405.912 305.536 406.34 305.053Z" fill="#808080" fill-opacity="0.08"/>
<path d="M406.34 305.053L479.095 223.02C479.544 222.515 480.354 222.59 480.701 223.169L519.628 288.092C519.85 288.462 519.81 288.933 519.528 289.259L492.609 320.49C492.501 320.615 492.364 320.711 492.21 320.77L458.205 333.836C457.934 333.94 457.63 333.921 457.374 333.784L406.616 306.598C406.047 306.293 405.912 305.536 406.34 305.053Z" fill="url(#paint7_linear_5_32)" fill-opacity="0.7" style="mix-blend-mode:overlay"/>
<path d="M406.714 305.385L479.469 223.352L479.098 223.023L479.469 223.352C479.694 223.099 480.099 223.137 480.272 223.426L519.2 288.349C519.31 288.534 519.29 288.77 519.149 288.933L492.23 320.163C492.176 320.226 492.107 320.274 492.03 320.303L458.026 333.369C457.89 333.421 457.738 333.412 457.61 333.343L406.852 306.157C406.567 306.005 406.5 305.626 406.714 305.385Z" stroke="#151822" stroke-opacity="0.41"/>
</g>
<g filter="url(#filter8_ddd_5_32)">
<path d="M610.308 210.16L481.086 222.35C480.352 222.42 479.943 223.232 480.324 223.863L519.337 288.385C519.559 288.753 519.991 288.937 520.41 288.844L583.107 274.908C583.419 274.839 583.678 274.625 583.806 274.333L611.318 211.557C611.624 210.858 611.067 210.088 610.308 210.16Z" fill="#808080" fill-opacity="0.08"/>
<path d="M610.308 210.16L481.086 222.35C480.352 222.42 479.943 223.232 480.324 223.863L519.337 288.385C519.559 288.753 519.991 288.937 520.41 288.844L583.107 274.908C583.419 274.839 583.678 274.625 583.806 274.333L611.318 211.557C611.624 210.858 611.067 210.088 610.308 210.16Z" fill="url(#paint8_linear_5_32)" fill-opacity="0.7" style="mix-blend-mode:overlay"/>
<path d="M481.133 222.848L610.355 210.657C610.735 210.622 611.013 211.007 610.86 211.356L583.348 274.132C583.284 274.278 583.155 274.385 582.999 274.42L520.301 288.356C520.092 288.403 519.876 288.31 519.765 288.127L480.752 223.605C480.561 223.289 480.766 222.883 481.133 222.848Z" stroke="#151822" stroke-opacity="0.41"/>
</g>
<g filter="url(#filter9_ddd_5_32)">
<path d="M544.798 217.608L480.563 223.36C479.835 223.425 479.285 222.712 479.534 222.024L516.445 119.92C516.775 119.006 518.082 119.052 518.347 119.987L545.671 216.339C545.842 216.942 545.422 217.552 544.798 217.608Z" fill="#808080" fill-opacity="0.08"/>
<path d="M544.798 217.608L480.563 223.36C479.835 223.425 479.285 222.712 479.534 222.024L516.445 119.92C516.775 119.006 518.082 119.052 518.347 119.987L545.671 216.339C545.842 216.942 545.422 217.552 544.798 217.608Z" fill="url(#paint9_linear_5_32)" fill-opacity="0.7" style="mix-blend-mode:overlay"/>
<path d="M544.753 217.11L480.519 222.862C480.154 222.895 479.879 222.538 480.004 222.194L516.915 120.09C517.08 119.633 517.733 119.656 517.866 120.123L545.19 216.475C545.275 216.777 545.065 217.082 544.753 217.11Z" stroke="#151822" stroke-opacity="0.41"/>
</g>
<g filter="url(#filter10_ddd_5_32)">
<path d="M609.763 211.182L545.694 217.912C545.209 217.963 544.758 217.656 544.627 217.187L517.699 120.999C517.453 120.117 518.421 119.395 519.195 119.883L565.899 149.299C566.004 149.366 566.096 149.452 566.17 149.552L610.463 209.594C610.922 210.216 610.532 211.102 609.763 211.182Z" fill="#808080" fill-opacity="0.08"/>
<path d="M609.763 211.182L545.694 217.912C545.209 217.963 544.758 217.656 544.627 217.187L517.699 120.999C517.453 120.117 518.421 119.395 519.195 119.883L565.899 149.299C566.004 149.366 566.096 149.452 566.17 149.552L610.463 209.594C610.922 210.216 610.532 211.102 609.763 211.182Z" fill="url(#paint10_linear_5_32)" fill-opacity="0.7" style="mix-blend-mode:overlay"/>
<path d="M609.711 210.685L545.642 217.415C545.399 217.44 545.174 217.287 545.108 217.052L518.181 120.864C518.058 120.423 518.542 120.062 518.929 120.306L565.632 149.722C565.685 149.756 565.731 149.799 565.768 149.849L610.061 209.891C610.29 210.202 610.095 210.645 609.711 210.685Z" stroke="#151822" stroke-opacity="0.41" stroke-linejoin="round"/>
</g>
<g filter="url(#filter11_ddd_5_32)">
<path d="M399.024 335.985L320.808 404.539C320.038 405.214 318.872 404.434 319.202 403.465L334.845 357.456C334.943 357.168 335.167 356.94 335.453 356.837L398.026 334.292C399.065 333.918 399.855 335.257 399.024 335.985Z" fill="#808080" fill-opacity="0.08"/>
<path d="M399.024 335.985L320.808 404.539C320.038 405.214 318.872 404.434 319.202 403.465L334.845 357.456C334.943 357.168 335.167 356.94 335.453 356.837L398.026 334.292C399.065 333.918 399.855 335.257 399.024 335.985Z" fill="url(#paint11_linear_5_32)" fill-opacity="0.7" style="mix-blend-mode:overlay"/>
<path d="M398.694 335.609L320.478 404.163C320.093 404.5 319.511 404.11 319.675 403.626L335.318 357.617C335.367 357.473 335.479 357.359 335.622 357.307L398.195 334.763C398.715 334.575 399.11 335.245 398.694 335.609Z" stroke="#151822" stroke-opacity="0.41"/>
</g>
<g filter="url(#filter12_ddd_5_32)">
<path d="M267 302.962V346.494C267 346.987 267.359 347.406 267.846 347.482L334.975 357.961C335.141 357.986 335.311 357.97 335.469 357.913L398.511 335.176C398.818 335.066 399.051 334.813 399.137 334.499L406.812 306.327C406.925 305.914 406.762 305.476 406.409 305.236L379.848 287.214C379.644 287.076 379.397 287.018 379.153 287.051L267.867 301.971C267.371 302.038 267 302.461 267 302.962Z" fill="#808080" fill-opacity="0.08"/>
<path d="M267 302.962V346.494C267 346.987 267.359 347.406 267.846 347.482L334.975 357.961C335.141 357.986 335.311 357.97 335.469 357.913L398.511 335.176C398.818 335.066 399.051 334.813 399.137 334.499L406.812 306.327C406.925 305.914 406.762 305.476 406.409 305.236L379.848 287.214C379.644 287.076 379.397 287.018 379.153 287.051L267.867 301.971C267.371 302.038 267 302.461 267 302.962Z" fill="url(#paint12_linear_5_32)" fill-opacity="0.7" style="mix-blend-mode:overlay"/>
<path d="M267.5 346.494V302.962C267.5 302.712 267.685 302.5 267.934 302.467L379.22 287.546C379.342 287.53 379.465 287.559 379.567 287.628L406.128 305.65C406.305 305.77 406.386 305.989 406.33 306.195L398.654 334.367C398.611 334.524 398.495 334.651 398.341 334.706L335.299 357.443C335.22 357.471 335.135 357.479 335.052 357.467L267.923 346.988C267.679 346.95 267.5 346.74 267.5 346.494Z" stroke="#151822" stroke-opacity="0.41"/>
</g>
<circle cx="391" cy="105" r="2" fill="#151822" fill-opacity="0.41"/>
<circle cx="545" cy="217" r="2" fill="#151822" fill-opacity="0.41"/>
<circle cx="407" cy="306" r="2" fill="#151822" fill-opacity="0.41"/>
<circle cx="378" cy="207" r="2" fill="#151822" fill-opacity="0.41"/>
<circle cx="380" cy="287" r="2" fill="#151822" fill-opacity="0.41"/>
<circle cx="335" cy="358" r="2" fill="#151822" fill-opacity="0.41"/>
<circle cx="398" cy="335" r="2" fill="#151822" fill-opacity="0.41"/>
<circle cx="520" cy="289" r="2" fill="#151822" fill-opacity="0.41"/>
<circle cx="610" cy="211" r="2" fill="#151822" fill-opacity="0.41"/>
<circle cx="480" cy="222" r="2" fill="#151822" fill-opacity="0.41"/>
<circle cx="517" cy="120" r="2" fill="#151822" fill-opacity="0.41"/>
<circle cx="316" cy="131" r="2" fill="#151822" fill-opacity="0.41"/>
<circle cx="238" cy="203" r="2" fill="#151822" fill-opacity="0.41"/>
<circle cx="267" cy="303" r="2" fill="#151822" fill-opacity="0.41"/>
</g>
<defs>
<filter id="filter0_ddd_5_32" x="212.042" y="194.483" width="104.363" height="123.19" filterUnits="userSpaceOnUse" color-interpolation-filters="sRGB">
<feFlood flood-opacity="0" result="BackgroundImageFix"/>
<feColorMatrix in="SourceAlpha" type="matrix" values="0 0 0 0 0 0 0 0 0 0 0 0 0 0 0 0 0 0 127 0" result="hardAlpha"/>
<feOffset dy="1"/>
<feGaussianBlur stdDeviation="2"/>
<feColorMatrix type="matrix" values="0 0 0 0 0 0 0 0 0 0 0 0 0 0 0 0 0 0 0.1 0"/>
<feBlend mode="normal" in2="BackgroundImageFix" result="effect1_dropShadow_5_32"/>
<feColorMatrix in="SourceAlpha" type="matrix" values="0 0 0 0 0 0 0 0 0 0 0 0 0 0 0 0 0 0 127 0" result="hardAlpha"/>
<feOffset dy="8"/>
<feGaussianBlur stdDeviation="8"/>
<feColorMatrix type="matrix" values="0 0 0 0 0 0 0 0 0 0 0 0 0 0 0 0 0 0 0.05 0"/>
<feBlend mode="normal" in2="effect1_dropShadow_5_32" result="effect2_dropShadow_5_32"/>
<feColorMatrix in="SourceAlpha" type="matrix" values="0 0 0 0 0 0 0 0 0 0 0 0 0 0 0 0 0 0 127 0" result="hardAlpha"/>
<feMorphology radius="1" operator="dilate" in="SourceAlpha" result="effect3_dropShadow_5_32"/>
<feOffset/>
<feColorMatrix type="matrix" values="0 0 0 0 0 0 0 0 0 0 0 0 0 0 0 0 0 0 0.03 0"/>
<feBlend mode="normal" in2="effect2_dropShadow_5_32" result="effect3_dropShadow_5_32"/>
<feBlend mode="normal" in="SourceGraphic" in2="effect3_dropShadow_5_32" result="shape"/>
</filter>
<filter id="filter1_ddd_5_32" x="232.63" y="198.9" width="163.348" height="128.069" filterUnits="userSpaceOnUse" color-interpolation-filters="sRGB">
<feFlood flood-opacity="0" result="BackgroundImageFix"/>
<feColorMatrix in="SourceAlpha" type="matrix" values="0 0 0 0 0 0 0 0 0 0 0 0 0 0 0 0 0 0 127 0" result="hardAlpha"/>
<feOffset dy="1"/>
<feGaussianBlur stdDeviation="2"/>
<feColorMatrix type="matrix" values="0 0 0 0 0 0 0 0 0 0 0 0 0 0 0 0 0 0 0.1 0"/>
<feBlend mode="normal" in2="BackgroundImageFix" result="effect1_dropShadow_5_32"/>
<feColorMatrix in="SourceAlpha" type="matrix" values="0 0 0 0 0 0 0 0 0 0 0 0 0 0 0 0 0 0 127 0" result="hardAlpha"/>
<feOffset dy="8"/>
<feGaussianBlur stdDeviation="8"/>
<feColorMatrix type="matrix" values="0 0 0 0 0 0 0 0 0 0 0 0 0 0 0 0 0 0 0.05 0"/>
<feBlend mode="normal" in2="effect1_dropShadow_5_32" result="effect2_dropShadow_5_32"/>
<feColorMatrix in="SourceAlpha" type="matrix" values="0 0 0 0 0 0 0 0 0 0 0 0 0 0 0 0 0 0 127 0" result="hardAlpha"/>
<feMorphology radius="1" operator="dilate" in="SourceAlpha" result="effect3_dropShadow_5_32"/>
<feOffset/>
<feColorMatrix type="matrix" values="0 0 0 0 0 0 0 0 0 0 0 0 0 0 0 0 0 0 0.03 0"/>
<feBlend mode="normal" in2="effect2_dropShadow_5_32" result="effect3_dropShadow_5_32"/>
<feBlend mode="normal" in="SourceGraphic" in2="effect3_dropShadow_5_32" result="shape"/>
</filter>
<filter id="filter2_ddd_5_32" x="221.248" y="122.458" width="172.578" height="135.961" filterUnits="userSpaceOnUse" color-interpolation-filters="sRGB">
<feFlood flood-opacity="0" result="BackgroundImageFix"/>
<feColorMatrix in="SourceAlpha" type="matrix" values="0 0 0 0 0 0 0 0 0 0 0 0 0 0 0 0 0 0 127 0" result="hardAlpha"/>
<feOffset dy="1"/>
<feGaussianBlur stdDeviation="2"/>
<feColorMatrix type="matrix" values="0 0 0 0 0 0 0 0 0 0 0 0 0 0 0 0 0 0 0.1 0"/>
<feBlend mode="normal" in2="BackgroundImageFix" result="effect1_dropShadow_5_32"/>
<feColorMatrix in="SourceAlpha" type="matrix" values="0 0 0 0 0 0 0 0 0 0 0 0 0 0 0 0 0 0 127 0" result="hardAlpha"/>
<feOffset dy="8"/>
<feGaussianBlur stdDeviation="8"/>
<feColorMatrix type="matrix" values="0 0 0 0 0 0 0 0 0 0 0 0 0 0 0 0 0 0 0.05 0"/>
<feBlend mode="normal" in2="effect1_dropShadow_5_32" result="effect2_dropShadow_5_32"/>
<feColorMatrix in="SourceAlpha" type="matrix" values="0 0 0 0 0 0 0 0 0 0 0 0 0 0 0 0 0 0 127 0" result="hardAlpha"/>
<feMorphology radius="1" operator="dilate" in="SourceAlpha" result="effect3_dropShadow_5_32"/>
<feOffset/>
<feColorMatrix type="matrix" values="0 0 0 0 0 0 0 0 0 0 0 0 0 0 0 0 0 0 0.03 0"/>
<feBlend mode="normal" in2="effect2_dropShadow_5_32" result="effect3_dropShadow_5_32"/>
<feBlend mode="normal" in="SourceGraphic" in2="effect3_dropShadow_5_32" result="shape"/>
</filter>
<filter id="filter3_ddd_5_32" x="375.187" y="96" width="158.446" height="150.425" filterUnits="userSpaceOnUse" color-interpolation-filters="sRGB">
<feFlood flood-opacity="0" result="BackgroundImageFix"/>
<feColorMatrix in="SourceAlpha" type="matrix" values="0 0 0 0 0 0 0 0 0 0 0 0 0 0 0 0 0 0 127 0" result="hardAlpha"/>
<feOffset dy="1"/>
<feGaussianBlur stdDeviation="2"/>
<feColorMatrix type="matrix" values="0 0 0 0 0 0 0 0 0 0 0 0 0 0 0 0 0 0 0.1 0"/>
<feBlend mode="normal" in2="BackgroundImageFix" result="effect1_dropShadow_5_32"/>
<feColorMatrix in="SourceAlpha" type="matrix" values="0 0 0 0 0 0 0 0 0 0 0 0 0 0 0 0 0 0 127 0" result="hardAlpha"/>
<feOffset dy="8"/>
<feGaussianBlur stdDeviation="8"/>
<feColorMatrix type="matrix" values="0 0 0 0 0 0 0 0 0 0 0 0 0 0 0 0 0 0 0.05 0"/>
<feBlend mode="normal" in2="effect1_dropShadow_5_32" result="effect2_dropShadow_5_32"/>
<feColorMatrix in="SourceAlpha" type="matrix" values="0 0 0 0 0 0 0 0 0 0 0 0 0 0 0 0 0 0 127 0" result="hardAlpha"/>
<feMorphology radius="1" operator="dilate" in="SourceAlpha" result="effect3_dropShadow_5_32"/>
<feOffset/>
<feColorMatrix type="matrix" values="0 0 0 0 0 0 0 0 0 0 0 0 0 0 0 0 0 0 0.03 0"/>
<feBlend mode="normal" in2="effect2_dropShadow_5_32" result="effect3_dropShadow_5_32"/>
<feBlend mode="normal" in="SourceGraphic" in2="effect3_dropShadow_5_32" result="shape"/>
</filter>
<filter id="filter4_ddd_5_32" x="362.108" y="96.5957" width="133.137" height="150.062" filterUnits="userSpaceOnUse" color-interpolation-filters="sRGB">
<feFlood flood-opacity="0" result="BackgroundImageFix"/>
<feColorMatrix in="SourceAlpha" type="matrix" values="0 0 0 0 0 0 0 0 0 0 0 0 0 0 0 0 0 0 127 0" result="hardAlpha"/>
<feOffset dy="1"/>
<feGaussianBlur stdDeviation="2"/>
<feColorMatrix type="matrix" values="0 0 0 0 0 0 0 0 0 0 0 0 0 0 0 0 0 0 0.1 0"/>
<feBlend mode="normal" in2="BackgroundImageFix" result="effect1_dropShadow_5_32"/>
<feColorMatrix in="SourceAlpha" type="matrix" values="0 0 0 0 0 0 0 0 0 0 0 0 0 0 0 0 0 0 127 0" result="hardAlpha"/>
<feOffset dy="8"/>
<feGaussianBlur stdDeviation="8"/>
<feColorMatrix type="matrix" values="0 0 0 0 0 0 0 0 0 0 0 0 0 0 0 0 0 0 0.05 0"/>
<feBlend mode="normal" in2="effect1_dropShadow_5_32" result="effect2_dropShadow_5_32"/>
<feColorMatrix in="SourceAlpha" type="matrix" values="0 0 0 0 0 0 0 0 0 0 0 0 0 0 0 0 0 0 127 0" result="hardAlpha"/>
<feMorphology radius="1" operator="dilate" in="SourceAlpha" result="effect3_dropShadow_5_32"/>
<feOffset/>
<feColorMatrix type="matrix" values="0 0 0 0 0 0 0 0 0 0 0 0 0 0 0 0 0 0 0.03 0"/>
<feBlend mode="normal" in2="effect2_dropShadow_5_32" result="effect3_dropShadow_5_32"/>
<feBlend mode="normal" in="SourceGraphic" in2="effect3_dropShadow_5_32" result="shape"/>
</filter>
<filter id="filter5_ddd_5_32" x="361.029" y="198.664" width="135.009" height="131.023" filterUnits="userSpaceOnUse" color-interpolation-filters="sRGB">
<feFlood flood-opacity="0" result="BackgroundImageFix"/>
<feColorMatrix in="SourceAlpha" type="matrix" values="0 0 0 0 0 0 0 0 0 0 0 0 0 0 0 0 0 0 127 0" result="hardAlpha"/>
<feOffset dy="1"/>
<feGaussianBlur stdDeviation="2"/>
<feColorMatrix type="matrix" values="0 0 0 0 0 0 0 0 0 0 0 0 0 0 0 0 0 0 0.1 0"/>
<feBlend mode="normal" in2="BackgroundImageFix" result="effect1_dropShadow_5_32"/>
<feColorMatrix in="SourceAlpha" type="matrix" values="0 0 0 0 0 0 0 0 0 0 0 0 0 0 0 0 0 0 127 0" result="hardAlpha"/>
<feOffset dy="8"/>
<feGaussianBlur stdDeviation="8"/>
<feColorMatrix type="matrix" values="0 0 0 0 0 0 0 0 0 0 0 0 0 0 0 0 0 0 0.05 0"/>
<feBlend mode="normal" in2="effect1_dropShadow_5_32" result="effect2_dropShadow_5_32"/>
<feColorMatrix in="SourceAlpha" type="matrix" values="0 0 0 0 0 0 0 0 0 0 0 0 0 0 0 0 0 0 127 0" result="hardAlpha"/>
<feMorphology radius="1" operator="dilate" in="SourceAlpha" result="effect3_dropShadow_5_32"/>
<feOffset/>
<feColorMatrix type="matrix" values="0 0 0 0 0 0 0 0 0 0 0 0 0 0 0 0 0 0 0.03 0"/>
<feBlend mode="normal" in2="effect2_dropShadow_5_32" result="effect3_dropShadow_5_32"/>
<feBlend mode="normal" in="SourceGraphic" in2="effect3_dropShadow_5_32" result="shape"/>
</filter>
<filter id="filter6_ddd_5_32" x="300.164" y="96.4834" width="107.144" height="135.056" filterUnits="userSpaceOnUse" color-interpolation-filters="sRGB">
<feFlood flood-opacity="0" result="BackgroundImageFix"/>
<feColorMatrix in="SourceAlpha" type="matrix" values="0 0 0 0 0 0 0 0 0 0 0 0 0 0 0 0 0 0 127 0" result="hardAlpha"/>
<feOffset dy="1"/>
<feGaussianBlur stdDeviation="2"/>
<feColorMatrix type="matrix" values="0 0 0 0 0 0 0 0 0 0 0 0 0 0 0 0 0 0 0.1 0"/>
<feBlend mode="normal" in2="BackgroundImageFix" result="effect1_dropShadow_5_32"/>
<feColorMatrix in="SourceAlpha" type="matrix" values="0 0 0 0 0 0 0 0 0 0 0 0 0 0 0 0 0 0 127 0" result="hardAlpha"/>
<feOffset dy="8"/>
<feGaussianBlur stdDeviation="8"/>
<feColorMatrix type="matrix" values="0 0 0 0 0 0 0 0 0 0 0 0 0 0 0 0 0 0 0.05 0"/>
<feBlend mode="normal" in2="effect1_dropShadow_5_32" result="effect2_dropShadow_5_32"/>
<feColorMatrix in="SourceAlpha" type="matrix" values="0 0 0 0 0 0 0 0 0 0 0 0 0 0 0 0 0 0 127 0" result="hardAlpha"/>
<feMorphology radius="1" operator="dilate" in="SourceAlpha" result="effect3_dropShadow_5_32"/>
<feOffset/>
<feColorMatrix type="matrix" values="0 0 0 0 0 0 0 0 0 0 0 0 0 0 0 0 0 0 0.03 0"/>
<feBlend mode="normal" in2="effect2_dropShadow_5_32" result="effect3_dropShadow_5_32"/>
<feBlend mode="normal" in="SourceGraphic" in2="effect3_dropShadow_5_32" result="shape"/>
</filter>
<filter id="filter7_ddd_5_32" x="390.088" y="214.684" width="145.683" height="143.219" filterUnits="userSpaceOnUse" color-interpolation-filters="sRGB">
<feFlood flood-opacity="0" result="BackgroundImageFix"/>
<feColorMatrix in="SourceAlpha" type="matrix" values="0 0 0 0 0 0 0 0 0 0 0 0 0 0 0 0 0 0 127 0" result="hardAlpha"/>
<feOffset dy="1"/>
<feGaussianBlur stdDeviation="2"/>
<feColorMatrix type="matrix" values="0 0 0 0 0 0 0 0 0 0 0 0 0 0 0 0 0 0 0.1 0"/>
<feBlend mode="normal" in2="BackgroundImageFix" result="effect1_dropShadow_5_32"/>
<feColorMatrix in="SourceAlpha" type="matrix" values="0 0 0 0 0 0 0 0 0 0 0 0 0 0 0 0 0 0 127 0" result="hardAlpha"/>
<feOffset dy="8"/>
<feGaussianBlur stdDeviation="8"/>
<feColorMatrix type="matrix" values="0 0 0 0 0 0 0 0 0 0 0 0 0 0 0 0 0 0 0.05 0"/>
<feBlend mode="normal" in2="effect1_dropShadow_5_32" result="effect2_dropShadow_5_32"/>
<feColorMatrix in="SourceAlpha" type="matrix" values="0 0 0 0 0 0 0 0 0 0 0 0 0 0 0 0 0 0 127 0" result="hardAlpha"/>
<feMorphology radius="1" operator="dilate" in="SourceAlpha" result="effect3_dropShadow_5_32"/>
<feOffset/>
<feColorMatrix type="matrix" values="0 0 0 0 0 0 0 0 0 0 0 0 0 0 0 0 0 0 0.03 0"/>
<feBlend mode="normal" in2="effect2_dropShadow_5_32" result="effect3_dropShadow_5_32"/>
<feBlend mode="normal" in="SourceGraphic" in2="effect3_dropShadow_5_32" result="shape"/>
</filter>
<filter id="filter8_ddd_5_32" x="464.179" y="202.155" width="163.224" height="110.713" filterUnits="userSpaceOnUse" color-interpolation-filters="sRGB">
<feFlood flood-opacity="0" result="BackgroundImageFix"/>
<feColorMatrix in="SourceAlpha" type="matrix" values="0 0 0 0 0 0 0 0 0 0 0 0 0 0 0 0 0 0 127 0" result="hardAlpha"/>
<feOffset dy="1"/>
<feGaussianBlur stdDeviation="2"/>
<feColorMatrix type="matrix" values="0 0 0 0 0 0 0 0 0 0 0 0 0 0 0 0 0 0 0.1 0"/>
<feBlend mode="normal" in2="BackgroundImageFix" result="effect1_dropShadow_5_32"/>
<feColorMatrix in="SourceAlpha" type="matrix" values="0 0 0 0 0 0 0 0 0 0 0 0 0 0 0 0 0 0 127 0" result="hardAlpha"/>
<feOffset dy="8"/>
<feGaussianBlur stdDeviation="8"/>
<feColorMatrix type="matrix" values="0 0 0 0 0 0 0 0 0 0 0 0 0 0 0 0 0 0 0.05 0"/>
<feBlend mode="normal" in2="effect1_dropShadow_5_32" result="effect2_dropShadow_5_32"/>
<feColorMatrix in="SourceAlpha" type="matrix" values="0 0 0 0 0 0 0 0 0 0 0 0 0 0 0 0 0 0 127 0" result="hardAlpha"/>
<feMorphology radius="1" operator="dilate" in="SourceAlpha" result="effect3_dropShadow_5_32"/>
<feOffset/>
<feColorMatrix type="matrix" values="0 0 0 0 0 0 0 0 0 0 0 0 0 0 0 0 0 0 0.03 0"/>
<feBlend mode="normal" in2="effect2_dropShadow_5_32" result="effect3_dropShadow_5_32"/>
<feBlend mode="normal" in="SourceGraphic" in2="effect3_dropShadow_5_32" result="shape"/>
</filter>
<filter id="filter9_ddd_5_32" x="463.473" y="111.26" width="98.2362" height="136.104" filterUnits="userSpaceOnUse" color-interpolation-filters="sRGB">
<feFlood flood-opacity="0" result="BackgroundImageFix"/>
<feColorMatrix in="SourceAlpha" type="matrix" values="0 0 0 0 0 0 0 0 0 0 0 0 0 0 0 0 0 0 127 0" result="hardAlpha"/>
<feOffset dy="1"/>
<feGaussianBlur stdDeviation="2"/>
<feColorMatrix type="matrix" values="0 0 0 0 0 0 0 0 0 0 0 0 0 0 0 0 0 0 0.1 0"/>
<feBlend mode="normal" in2="BackgroundImageFix" result="effect1_dropShadow_5_32"/>
<feColorMatrix in="SourceAlpha" type="matrix" values="0 0 0 0 0 0 0 0 0 0 0 0 0 0 0 0 0 0 127 0" result="hardAlpha"/>
<feOffset dy="8"/>
<feGaussianBlur stdDeviation="8"/>
<feColorMatrix type="matrix" values="0 0 0 0 0 0 0 0 0 0 0 0 0 0 0 0 0 0 0.05 0"/>
<feBlend mode="normal" in2="effect1_dropShadow_5_32" result="effect2_dropShadow_5_32"/>
<feColorMatrix in="SourceAlpha" type="matrix" values="0 0 0 0 0 0 0 0 0 0 0 0 0 0 0 0 0 0 127 0" result="hardAlpha"/>
<feMorphology radius="1" operator="dilate" in="SourceAlpha" result="effect3_dropShadow_5_32"/>
<feOffset/>
<feColorMatrix type="matrix" values="0 0 0 0 0 0 0 0 0 0 0 0 0 0 0 0 0 0 0.03 0"/>
<feBlend mode="normal" in2="effect2_dropShadow_5_32" result="effect3_dropShadow_5_32"/>
<feBlend mode="normal" in="SourceGraphic" in2="effect3_dropShadow_5_32" result="shape"/>
</filter>
<filter id="filter10_ddd_5_32" x="501.66" y="111.725" width="124.999" height="130.192" filterUnits="userSpaceOnUse" color-interpolation-filters="sRGB">
<feFlood flood-opacity="0" result="BackgroundImageFix"/>
<feColorMatrix in="SourceAlpha" type="matrix" values="0 0 0 0 0 0 0 0 0 0 0 0 0 0 0 0 0 0 127 0" result="hardAlpha"/>
<feOffset dy="1"/>
<feGaussianBlur stdDeviation="2"/>
<feColorMatrix type="matrix" values="0 0 0 0 0 0 0 0 0 0 0 0 0 0 0 0 0 0 0.1 0"/>
<feBlend mode="normal" in2="BackgroundImageFix" result="effect1_dropShadow_5_32"/>
<feColorMatrix in="SourceAlpha" type="matrix" values="0 0 0 0 0 0 0 0 0 0 0 0 0 0 0 0 0 0 127 0" result="hardAlpha"/>
<feOffset dy="8"/>
<feGaussianBlur stdDeviation="8"/>
<feColorMatrix type="matrix" values="0 0 0 0 0 0 0 0 0 0 0 0 0 0 0 0 0 0 0.05 0"/>
<feBlend mode="normal" in2="effect1_dropShadow_5_32" result="effect2_dropShadow_5_32"/>
<feColorMatrix in="SourceAlpha" type="matrix" values="0 0 0 0 0 0 0 0 0 0 0 0 0 0 0 0 0 0 127 0" result="hardAlpha"/>
<feMorphology radius="1" operator="dilate" in="SourceAlpha" result="effect3_dropShadow_5_32"/>
<feOffset/>
<feColorMatrix type="matrix" values="0 0 0 0 0 0 0 0 0 0 0 0 0 0 0 0 0 0 0.03 0"/>
<feBlend mode="normal" in2="effect2_dropShadow_5_32" result="effect3_dropShadow_5_32"/>
<feBlend mode="normal" in="SourceGraphic" in2="effect3_dropShadow_5_32" result="shape"/>
</filter>
<filter id="filter11_ddd_5_32" x="303.145" y="326.227" width="112.227" height="102.565" filterUnits="userSpaceOnUse" color-interpolation-filters="sRGB">
<feFlood flood-opacity="0" result="BackgroundImageFix"/>
<feColorMatrix in="SourceAlpha" type="matrix" values="0 0 0 0 0 0 0 0 0 0 0 0 0 0 0 0 0 0 127 0" result="hardAlpha"/>
<feOffset dy="1"/>
<feGaussianBlur stdDeviation="2"/>
<feColorMatrix type="matrix" values="0 0 0 0 0 0 0 0 0 0 0 0 0 0 0 0 0 0 0.1 0"/>
<feBlend mode="normal" in2="BackgroundImageFix" result="effect1_dropShadow_5_32"/>
<feColorMatrix in="SourceAlpha" type="matrix" values="0 0 0 0 0 0 0 0 0 0 0 0 0 0 0 0 0 0 127 0" result="hardAlpha"/>
<feOffset dy="8"/>
<feGaussianBlur stdDeviation="8"/>
<feColorMatrix type="matrix" values="0 0 0 0 0 0 0 0 0 0 0 0 0 0 0 0 0 0 0.05 0"/>
<feBlend mode="normal" in2="effect1_dropShadow_5_32" result="effect2_dropShadow_5_32"/>
<feColorMatrix in="SourceAlpha" type="matrix" values="0 0 0 0 0 0 0 0 0 0 0 0 0 0 0 0 0 0 127 0" result="hardAlpha"/>
<feMorphology radius="1" operator="dilate" in="SourceAlpha" result="effect3_dropShadow_5_32"/>
<feOffset/>
<feColorMatrix type="matrix" values="0 0 0 0 0 0 0 0 0 0 0 0 0 0 0 0 0 0 0.03 0"/>
<feBlend mode="normal" in2="effect2_dropShadow_5_32" result="effect3_dropShadow_5_32"/>
<feBlend mode="normal" in="SourceGraphic" in2="effect3_dropShadow_5_32" result="shape"/>
</filter>
<filter id="filter12_ddd_5_32" x="251" y="279.042" width="171.847" height="102.931" filterUnits="userSpaceOnUse" color-interpolation-filters="sRGB">
<feFlood flood-opacity="0" result="BackgroundImageFix"/>
<feColorMatrix in="SourceAlpha" type="matrix" values="0 0 0 0 0 0 0 0 0 0 0 0 0 0 0 0 0 0 127 0" result="hardAlpha"/>
<feOffset dy="1"/>
<feGaussianBlur stdDeviation="2"/>
<feColorMatrix type="matrix" values="0 0 0 0 0 0 0 0 0 0 0 0 0 0 0 0 0 0 0.1 0"/>
<feBlend mode="normal" in2="BackgroundImageFix" result="effect1_dropShadow_5_32"/>
<feColorMatrix in="SourceAlpha" type="matrix" values="0 0 0 0 0 0 0 0 0 0 0 0 0 0 0 0 0 0 127 0" result="hardAlpha"/>
<feOffset dy="8"/>
<feGaussianBlur stdDeviation="8"/>
<feColorMatrix type="matrix" values="0 0 0 0 0 0 0 0 0 0 0 0 0 0 0 0 0 0 0.05 0"/>
<feBlend mode="normal" in2="effect1_dropShadow_5_32" result="effect2_dropShadow_5_32"/>
<feColorMatrix in="SourceAlpha" type="matrix" values="0 0 0 0 0 0 0 0 0 0 0 0 0 0 0 0 0 0 127 0" result="hardAlpha"/>
<feMorphology radius="1" operator="dilate" in="SourceAlpha" result="effect3_dropShadow_5_32"/>
<feOffset/>
<feColorMatrix type="matrix" values="0 0 0 0 0 0 0 0 0 0 0 0 0 0 0 0 0 0 0.03 0"/>
<feBlend mode="normal" in2="effect2_dropShadow_5_32" result="effect3_dropShadow_5_32"/>
<feBlend mode="normal" in="SourceGraphic" in2="effect3_dropShadow_5_32" result="shape"/>
</filter>
<linearGradient id="paint0_linear_5_32" x1="264.5" y1="191.645" x2="264.5" y2="299.59" gradientUnits="userSpaceOnUse">
<stop stop-color="#F5C0C0" stop-opacity="0.37"/>
<stop offset="1" stop-color="#F5C0C0" stop-opacity="0.14"/>
</linearGradient>
<linearGradient id="paint1_linear_5_32" x1="314" y1="199.531" x2="314" y2="308.662" gradientUnits="userSpaceOnUse">
<stop stop-color="#F5C0C0" stop-opacity="0.37"/>
<stop offset="1" stop-color="#F5C0C0" stop-opacity="0.14"/>
</linearGradient>
<linearGradient id="paint2_linear_5_32" x1="307" y1="118.279" x2="307" y2="240.459" gradientUnits="userSpaceOnUse">
<stop stop-color="#F5C0C0" stop-opacity="0.37"/>
<stop offset="1" stop-color="#F5C0C0" stop-opacity="0.14"/>
</linearGradient>
<linearGradient id="paint3_linear_5_32" x1="454.5" y1="90.4586" x2="454.5" y2="231.617" gradientUnits="userSpaceOnUse">
<stop stop-color="#F5C0C0" stop-opacity="0.37"/>
<stop offset="1" stop-color="#F5C0C0" stop-opacity="0.14"/>
</linearGradient>
<linearGradient id="paint4_linear_5_32" x1="429" y1="90.4586" x2="429" y2="231.617" gradientUnits="userSpaceOnUse">
<stop stop-color="#F5C0C0" stop-opacity="0.37"/>
<stop offset="1" stop-color="#F5C0C0" stop-opacity="0.14"/>
</linearGradient>
<linearGradient id="paint5_linear_5_32" x1="428" y1="197.962" x2="428" y2="313.024" gradientUnits="userSpaceOnUse">
<stop stop-color="#F5C0C0" stop-opacity="0.37"/>
<stop offset="1" stop-color="#F5C0C0" stop-opacity="0.14"/>
</linearGradient>
<linearGradient id="paint6_linear_5_32" x1="353.5" y1="92.1655" x2="353.5" y2="215.531" gradientUnits="userSpaceOnUse">
<stop stop-color="#F5C0C0" stop-opacity="0.37"/>
<stop offset="1" stop-color="#F5C0C0" stop-opacity="0.14"/>
</linearGradient>
<linearGradient id="paint7_linear_5_32" x1="464" y1="210.369" x2="464" y2="342.038" gradientUnits="userSpaceOnUse">
<stop stop-color="#F5C0C0" stop-opacity="0.37"/>
<stop offset="1" stop-color="#F5C0C0" stop-opacity="0.14"/>
</linearGradient>
<linearGradient id="paint8_linear_5_32" x1="545" y1="201.01" x2="545" y2="294.721" gradientUnits="userSpaceOnUse">
<stop stop-color="#F5C0C0" stop-opacity="0.37"/>
<stop offset="1" stop-color="#F5C0C0" stop-opacity="0.14"/>
</linearGradient>
<linearGradient id="paint9_linear_5_32" x1="511.5" y1="109.393" x2="511.5" y2="230.386" gradientUnits="userSpaceOnUse">
<stop stop-color="#F5C0C0" stop-opacity="0.37"/>
<stop offset="1" stop-color="#F5C0C0" stop-opacity="0.14"/>
</linearGradient>
<linearGradient id="paint10_linear_5_32" x1="566.5" y1="108.848" x2="566.5" y2="225.096" gradientUnits="userSpaceOnUse">
<stop stop-color="#F5C0C0" stop-opacity="0.37"/>
<stop offset="1" stop-color="#F5C0C0" stop-opacity="0.14"/>
</linearGradient>
<linearGradient id="paint11_linear_5_32" x1="358.5" y1="325.693" x2="358.5" y2="412.286" gradientUnits="userSpaceOnUse">
<stop stop-color="#F5C0C0" stop-opacity="0.37"/>
<stop offset="1" stop-color="#F5C0C0" stop-opacity="0.14"/>
</linearGradient>
<linearGradient id="paint12_linear_5_32" x1="337" y1="278.921" x2="337" y2="363.141" gradientUnits="userSpaceOnUse">
<stop stop-color="#F5C0C0" stop-opacity="0.37"/>
<stop offset="1" stop-color="#F5C0C0" stop-opacity="0.14"/>
</linearGradient>
<clipPath id="clip0_5_32">
<rect width="840" height="510" fill="white"/>
</clipPath>
</defs>
</svg>
