<svg width="360" height="195" viewBox="0 0 360 195" fill="none" xmlns="http://www.w3.org/2000/svg">
<path d="M17.8386 85.0638C7.52089 83 2.7444 89.0153 0 92V195H360V0C356.586 11.8483 328.159 42 327.409 42C326.66 42 323.774 41.2495 323.398 40.5C321.393 36.5 308.357 45 308.362 45.7653C308.366 46.5306 286.474 52.4422 278.002 56.2117C275.486 51.0714 269.818 40.5306 263.231 46.5C254.998 53.9617 239.217 60.4847 237.159 57.5C235.1 54.5153 229.421 43.2781 220.502 49.2475L220.316 49.3717C211.412 55.3311 199.207 63.5 191.031 63.5C182.797 63.5 177.599 54.4796 173.482 50.5C169.365 46.5204 164.432 57.2066 161.001 60.1913C157.571 63.176 157.675 63.4872 154.93 61C152.186 58.5128 143.636 61.5102 140.891 63.5C138.147 65.4898 138.89 69.3503 126.351 73.5C110.087 78.8827 110.101 59.8112 107.298 59C103.296 57.8416 92.42 66.6581 83.5006 71.6326C74.5813 76.6071 74.3643 77.0051 68.1894 78C62.0145 78.9949 55.9448 72.9949 51.1421 72C46.3394 71.0051 43.5947 77.0357 38.1059 84C32.617 90.9643 27.3701 86.9703 17.8386 85.0638Z" fill="url(#paint0_linear_102_1624)"/>
<path d="M1 91C3.7463 87.8786 9.10159 82.4682 16.7912 83.7168C26.4033 85.2775 31.8959 91 37.3885 83.7168C42.8811 76.4335 47.0006 70.1908 51.8066 71.2312C56.6126 72.2717 60.0455 77.9942 66.2247 76.9538C72.4039 75.9133 55.1877 87.5478 82.7025 71.2312C110.217 54.9147 107.222 57.4017 108.792 62.9075C110.728 69.6938 116.345 79.5549 128.017 73.3121C139.688 67.0694 139.963 60.3064 147.927 60.3064C155.891 60.3064 151.36 57.7052 154.106 60.3064C156.853 62.9075 158.226 61.8671 161.659 58.7457C165.092 55.6243 170.015 46.2601 174.134 50.422C178.254 54.5838 181.569 62.9075 189.808 62.9075C198.047 62.9075 211.34 54.5838 220.265 48.341C229.191 42.0983 234.436 54.0636 236.495 57.185C238.555 60.3064 253.66 54.0636 261.899 46.2601C268.49 40.0173 275.173 49.2081 277.69 54.5838C286.616 52.3295 306.252 46.4682 313.392 41.0578C320.532 35.6474 324.606 40.5376 325.75 43.659C332.158 40.0173 355.067 14.026 358.5 0.5" stroke="url(#paint1_linear_102_1624)" stroke-width="2" stroke-linecap="round" stroke-linejoin="round"/>
<defs>
<linearGradient id="paint0_linear_102_1624" x1="175.642" y1="23.3801" x2="175.642" y2="129.337" gradientUnits="userSpaceOnUse">
<stop stop-color="#0070D8" stop-opacity="0.18"/>
<stop offset="1" stop-color="white" stop-opacity="0"/>
</linearGradient>
<linearGradient id="paint1_linear_102_1624" x1="359.003" y1="5.09892e-05" x2="-2.9449" y2="91.2409" gradientUnits="userSpaceOnUse">
<stop stop-color="#02308A"/>
<stop offset="0.41" stop-color="#1C3C60"/>
<stop offset="1" stop-color="#0097C7"/>
</linearGradient>
</defs>
</svg>
